<?xml version="1.0" encoding="utf-8"?>
<!-- Generator: Adobe Illustrator 27.5.0, SVG Export Plug-In . SVG Version: 6.00 Build 0)  -->
<svg version="1.1" xmlns="http://www.w3.org/2000/svg" xmlns:xlink="http://www.w3.org/1999/xlink" x="0px" y="0px"
	 viewBox="0 0 500 500" style="enable-background:new 0 0 500 500;" xml:space="preserve">
<g id="Background_Complete">
	<g>
		<path style="fill:#EBEBEB;" d="M287.049,307.601c-0.22,0.565-0.373,1.156-0.465,1.762c-0.355-1.051-0.865-2.013-1.591-2.875
			c-1.114-1.323-2.615-2.374-4.13-3.369c-0.045-0.03-0.091-0.059-0.136-0.089c-0.308,2.23-0.218,4.382,0.537,6.201
			c0.157,0.379,0.346,0.744,0.559,1.095c-0.381-0.076-0.764-0.141-1.149-0.194c-2.591-0.359-6.726,0.174-8.738,0.406
			c2.338,2.348,5.051,4.11,8.033,5.207c0.184,0.068,0.37,0.131,0.557,0.193c-0.456,0.255-0.891,0.553-1.303,0.9
			c-1.323,1.113-2.374,2.614-3.37,4.129c-0.03,0.045-0.06,0.091-0.089,0.136c2.229,0.306,4.38,0.215,6.2-0.54
			c0.835-0.347,1.604-0.834,2.295-1.438c-0.116,0.441-0.198,0.888-0.239,1.34c-0.156,1.7,0.244,3.471,0.951,5.186
			c0.027-0.038,0.053-0.075,0.08-0.113c0.889-1.258,1.755-2.558,2.28-3.962c0.52-1.392,0.629-2.82,0.483-4.323
			c-0.091-0.936-0.262-1.312-0.569-2.817c0,0,0,0,0,0c0,0,0,0,0-0.001c0,0,0,0,0,0.001c0.946-1.21,1.267-1.47,1.766-2.267
			c0.801-1.28,1.341-2.607,1.497-4.084c0.157-1.491-0.039-3.041-0.272-4.564c-0.007-0.046-0.014-0.091-0.021-0.137
			C288.816,304.604,287.668,306.01,287.049,307.601z"/>
		<g>
			<path style="fill:#E0E0E0;" d="M293.131,315.295c-0.016,0.09-3.284-0.403-7.299-1.103c-4.016-0.699-7.258-1.34-7.243-1.43
				c0.016-0.09,3.283,0.403,7.3,1.103C289.904,314.565,293.147,315.205,293.131,315.295z"/>
		</g>
		<g>
			<path style="fill:#E0E0E0;" d="M285.43,313.976c0.06,0.07-0.42,0.577-1.071,1.132c-0.651,0.556-1.228,0.949-1.287,0.88
				c-0.06-0.07,0.42-0.577,1.072-1.132C284.795,314.3,285.371,313.906,285.43,313.976z"/>
		</g>
		<g>
			<path style="fill:#E0E0E0;" d="M283.86,313.838c-0.09,0.027-0.302-0.437-0.581-0.989c-0.276-0.554-0.521-1-0.445-1.057
				c0.07-0.055,0.451,0.324,0.742,0.908C283.87,313.283,283.946,313.815,283.86,313.838z"/>
		</g>
	</g>
	<g>
		<path style="fill:#F5F5F5;" d="M199.427,87.766c0.52-3.779-4.812-6.887-8.82-7.21c-1.911-0.154-3.896,0.138-5.706-0.493
			c-3.922-1.367-5.489-6.434-9.316-8.049c-2.861-1.207-6.155-0.132-8.929,1.264c-2.774,1.396-5.515,3.153-8.614,3.351
			c-2.695,0.173-5.623-0.827-7.981,0.49c-1.757,0.981-2.678,3.006-4.298,4.201c-1.585,1.169-3.652,1.416-5.618,1.523
			c-1.966,0.107-4.002,0.127-5.792,0.947c-1.79,0.82-3.271,2.713-2.9,4.647L199.427,87.766z"/>
	</g>
	<g>
		<rect x="75.737" y="168.427" style="fill:#F5F5F5;" width="80.798" height="256.066"/>
		<rect x="116.136" y="168.427" style="fill:#EBEBEB;" width="40.399" height="255.361"/>
		<rect x="84.963" y="143.288" style="fill:#F5F5F5;" width="28.532" height="25.139"/>
		<rect x="106.694" y="143.288" style="fill:#EBEBEB;" width="6.8" height="25.139"/>
		<polyline style="fill:#E0E0E0;" points="69.003,168.427 69.003,166.961 158.899,166.961 158.899,168.427 		"/>
		<rect x="91.686" y="179.391" style="fill:#FAFAFA;" width="6.839" height="14.421"/>
		<g>
			<path style="fill:#E0E0E0;" d="M116.136,199.471c0,0.152-9.044,0.275-20.199,0.275c-11.158,0-20.2-0.123-20.2-0.275
				s9.042-0.275,20.2-0.275C107.091,199.196,116.136,199.319,116.136,199.471z"/>
		</g>
		<g>
			<rect x="132.436" y="179.391" style="fill:#E0E0E0;" width="6.839" height="14.421"/>
			<g>
				<path style="fill:#E0E0E0;" d="M156.886,199.471c0,0.152-9.044,0.275-20.199,0.275c-11.158,0-20.2-0.123-20.2-0.275
					s9.042-0.275,20.2-0.275C147.842,199.196,156.886,199.319,156.886,199.471z"/>
			</g>
		</g>
		<g>
			<rect x="132.436" y="208.022" style="fill:#E0E0E0;" width="6.839" height="14.421"/>
			<g>
				<path style="fill:#E0E0E0;" d="M156.886,228.103c0,0.152-9.044,0.275-20.199,0.275c-11.158,0-20.2-0.123-20.2-0.275
					c0-0.152,9.042-0.275,20.2-0.275C147.842,227.827,156.886,227.951,156.886,228.103z"/>
			</g>
		</g>
		<g>
			<rect x="132.436" y="237.517" style="fill:#E0E0E0;" width="6.839" height="14.421"/>
			<g>
				<path style="fill:#E0E0E0;" d="M156.886,257.598c0,0.152-9.044,0.275-20.199,0.275c-11.158,0-20.2-0.123-20.2-0.275
					c0-0.152,9.042-0.276,20.2-0.276C147.842,257.323,156.886,257.446,156.886,257.598z"/>
			</g>
		</g>
		<g>
			<rect x="132.436" y="267.013" style="fill:#E0E0E0;" width="6.839" height="14.421"/>
			<g>
				<path style="fill:#E0E0E0;" d="M156.886,287.093c0,0.152-9.044,0.276-20.199,0.276c-11.158,0-20.2-0.123-20.2-0.276
					c0-0.152,9.042-0.275,20.2-0.275C147.842,286.818,156.886,286.941,156.886,287.093z"/>
			</g>
		</g>
		<g>
			<rect x="132.436" y="295.664" style="fill:#E0E0E0;" width="6.839" height="14.421"/>
			<g>
				<path style="fill:#E0E0E0;" d="M156.886,315.745c0,0.152-9.044,0.275-20.199,0.275c-11.158,0-20.2-0.123-20.2-0.275
					c0-0.152,9.042-0.275,20.2-0.275C147.842,315.47,156.886,315.593,156.886,315.745z"/>
			</g>
		</g>
		<g>
			<rect x="132.436" y="324.431" style="fill:#E0E0E0;" width="6.839" height="14.421"/>
			<rect x="132.436" y="353.576" style="fill:#E0E0E0;" width="6.839" height="14.421"/>
			<g>
				<path style="fill:#E0E0E0;" d="M156.886,344.512c0,0.152-9.044,0.275-20.199,0.275c-11.158,0-20.2-0.123-20.2-0.275
					c0-0.152,9.042-0.275,20.2-0.275C147.842,344.237,156.886,344.36,156.886,344.512z"/>
			</g>
		</g>
		<rect x="91.686" y="208.459" style="fill:#FAFAFA;" width="6.839" height="14.421"/>
		<g>
			<path style="fill:#E0E0E0;" d="M116.136,228.54c0,0.152-9.044,0.275-20.199,0.275c-11.158,0-20.2-0.123-20.2-0.275
				c0-0.152,9.042-0.275,20.2-0.275C107.091,228.264,116.136,228.388,116.136,228.54z"/>
		</g>
		<rect x="91.686" y="237.527" style="fill:#FAFAFA;" width="6.839" height="14.421"/>
		<g>
			<path style="fill:#E0E0E0;" d="M116.136,257.608c0,0.152-9.044,0.275-20.199,0.275c-11.158,0-20.2-0.123-20.2-0.275
				c0-0.152,9.042-0.275,20.2-0.275C107.091,257.333,116.136,257.456,116.136,257.608z"/>
		</g>
		<rect x="91.686" y="266.596" style="fill:#FAFAFA;" width="6.839" height="14.421"/>
		<g>
			<path style="fill:#E0E0E0;" d="M116.136,286.677c0,0.152-9.044,0.275-20.199,0.275c-11.158,0-20.2-0.123-20.2-0.275
				c0-0.152,9.042-0.275,20.2-0.275C107.091,286.401,116.136,286.525,116.136,286.677z"/>
		</g>
		<rect x="91.686" y="295.664" style="fill:#FAFAFA;" width="6.839" height="14.421"/>
		<g>
			<path style="fill:#E0E0E0;" d="M116.136,315.745c0,0.152-9.044,0.275-20.199,0.275c-11.158,0-20.2-0.123-20.2-0.275
				c0-0.152,9.042-0.275,20.2-0.275C107.091,315.47,116.136,315.593,116.136,315.745z"/>
		</g>
		<rect x="91.686" y="324.733" style="fill:#FAFAFA;" width="6.839" height="14.421"/>
		<g>
			<path style="fill:#E0E0E0;" d="M116.136,344.813c0,0.152-9.044,0.275-20.199,0.275c-11.158,0-20.2-0.123-20.2-0.275
				c0-0.152,9.042-0.275,20.2-0.275C107.091,344.538,116.136,344.661,116.136,344.813z"/>
		</g>
		<g>
			<rect x="91.686" y="353.801" style="fill:#FAFAFA;" width="6.839" height="14.421"/>
		</g>
	</g>
	<g>
		<rect x="142.533" y="254.014" style="fill:#F5F5F5;" width="68.579" height="217.343"/>
		<rect x="176.823" y="254.014" style="fill:#EBEBEB;" width="34.29" height="216.745"/>
		<rect x="150.364" y="232.677" style="fill:#F5F5F5;" width="24.217" height="21.337"/>
		<rect x="168.809" y="232.677" style="fill:#EBEBEB;" width="5.772" height="21.337"/>
		<polyline style="fill:#E0E0E0;" points="136.818,254.014 136.818,252.77 213.119,252.77 213.119,254.014 		"/>
		<rect x="156.07" y="263.32" style="fill:#FAFAFA;" width="5.805" height="12.24"/>
		<g>
			<path style="fill:#E0E0E0;" d="M176.823,280.364c0,0.129-7.677,0.234-17.144,0.234c-9.471,0-17.146-0.105-17.146-0.234
				c0-0.129,7.675-0.234,17.146-0.234C169.146,280.131,176.823,280.235,176.823,280.364z"/>
		</g>
		<g>
			<rect x="190.658" y="263.32" style="fill:#E0E0E0;" width="5.805" height="12.24"/>
			<g>
				<path style="fill:#E0E0E0;" d="M211.411,280.364c0,0.129-7.676,0.234-17.144,0.234c-9.471,0-17.146-0.105-17.146-0.234
					c0-0.129,7.675-0.234,17.146-0.234C203.734,280.131,211.411,280.235,211.411,280.364z"/>
			</g>
		</g>
		<g>
			<rect x="190.658" y="287.622" style="fill:#E0E0E0;" width="5.805" height="12.24"/>
			<g>
				<path style="fill:#E0E0E0;" d="M211.411,304.666c0,0.129-7.676,0.234-17.144,0.234c-9.471,0-17.146-0.105-17.146-0.234
					c0-0.129,7.675-0.234,17.146-0.234C203.734,304.432,211.411,304.537,211.411,304.666z"/>
			</g>
		</g>
		<g>
			<rect x="190.658" y="312.657" style="fill:#E0E0E0;" width="5.805" height="12.24"/>
			<g>
				<path style="fill:#E0E0E0;" d="M211.411,329.701c0,0.129-7.676,0.234-17.144,0.234c-9.471,0-17.146-0.105-17.146-0.234
					c0-0.129,7.675-0.234,17.146-0.234C203.734,329.467,211.411,329.572,211.411,329.701z"/>
			</g>
		</g>
		<g>
			<rect x="190.658" y="337.692" style="fill:#E0E0E0;" width="5.805" height="12.24"/>
			<g>
				<path style="fill:#E0E0E0;" d="M211.411,354.736c0,0.129-7.676,0.234-17.144,0.234c-9.471,0-17.146-0.105-17.146-0.234
					c0-0.129,7.675-0.234,17.146-0.234C203.734,354.502,211.411,354.607,211.411,354.736z"/>
			</g>
		</g>
		<g>
			<rect x="190.658" y="362.011" style="fill:#E0E0E0;" width="5.805" height="12.24"/>
			<g>
				<path style="fill:#E0E0E0;" d="M211.411,379.055c0,0.129-7.676,0.234-17.144,0.234c-9.471,0-17.146-0.105-17.146-0.234
					c0-0.129,7.675-0.234,17.146-0.234C203.734,378.821,211.411,378.926,211.411,379.055z"/>
			</g>
		</g>
		<g>
			<rect x="190.658" y="386.428" style="fill:#E0E0E0;" width="5.805" height="12.24"/>
			<rect x="190.658" y="411.165" style="fill:#E0E0E0;" width="5.805" height="12.24"/>
			<g>
				<path style="fill:#E0E0E0;" d="M211.411,403.472c0,0.129-7.676,0.234-17.144,0.234c-9.471,0-17.146-0.105-17.146-0.234
					s7.675-0.234,17.146-0.234C203.734,403.238,211.411,403.343,211.411,403.472z"/>
			</g>
		</g>
		<rect x="156.07" y="287.993" style="fill:#FAFAFA;" width="5.805" height="12.24"/>
		<g>
			<path style="fill:#E0E0E0;" d="M176.823,305.037c0,0.129-7.677,0.234-17.144,0.234c-9.471,0-17.146-0.105-17.146-0.234
				c0-0.129,7.675-0.234,17.146-0.234C169.146,304.803,176.823,304.908,176.823,305.037z"/>
		</g>
		<rect x="156.07" y="312.665" style="fill:#FAFAFA;" width="5.805" height="12.24"/>
		<g>
			<path style="fill:#E0E0E0;" d="M176.823,329.71c0,0.129-7.677,0.234-17.144,0.234c-9.471,0-17.146-0.104-17.146-0.234
				c0-0.129,7.675-0.234,17.146-0.234C169.146,329.476,176.823,329.581,176.823,329.71z"/>
		</g>
		<rect x="156.07" y="337.338" style="fill:#FAFAFA;" width="5.805" height="12.24"/>
		<g>
			<path style="fill:#E0E0E0;" d="M176.823,354.382c0,0.129-7.677,0.234-17.144,0.234c-9.471,0-17.146-0.105-17.146-0.234
				c0-0.129,7.675-0.234,17.146-0.234C169.146,354.148,176.823,354.253,176.823,354.382z"/>
		</g>
		<rect x="156.07" y="362.011" style="fill:#FAFAFA;" width="5.805" height="12.24"/>
		<g>
			<path style="fill:#E0E0E0;" d="M176.823,379.055c0,0.129-7.677,0.234-17.144,0.234c-9.471,0-17.146-0.105-17.146-0.234
				c0-0.129,7.675-0.234,17.146-0.234C169.146,378.821,176.823,378.926,176.823,379.055z"/>
		</g>
		<rect x="156.07" y="386.683" style="fill:#FAFAFA;" width="5.805" height="12.24"/>
		<g>
			<path style="fill:#E0E0E0;" d="M176.823,403.727c0,0.129-7.677,0.234-17.144,0.234c-9.471,0-17.146-0.105-17.146-0.234
				c0-0.129,7.675-0.233,17.146-0.233C169.146,403.494,176.823,403.598,176.823,403.727z"/>
		</g>
		<g>
			<rect x="156.07" y="411.356" style="fill:#FAFAFA;" width="5.805" height="12.24"/>
		</g>
	</g>
	<g>
		<g>
			<polygon style="fill:#EBEBEB;" points="144.226,472.068 25.33,472.068 24.813,284.161 143.708,284.161 			"/>
			<rect x="84.261" y="284.161" style="fill:#E0E0E0;" width="59.448" height="187.907"/>
			<rect x="38.389" y="247.168" style="fill:#EBEBEB;" width="41.985" height="36.993"/>
			<rect x="70.368" y="247.168" style="fill:#E0E0E0;" width="10.007" height="36.993"/>
			<rect x="14.904" y="282.003" style="fill:#E0E0E0;" width="132.284" height="2.158"/>
			<rect x="48.282" y="300.294" style="fill:#FFFFFF;" width="10.064" height="21.221"/>
			<g>
				<path style="fill:#E0E0E0;" d="M84.261,329.844c0,0.224-13.309,0.405-29.722,0.405c-16.419,0-29.725-0.181-29.725-0.405
					c0-0.224,13.306-0.405,29.725-0.405C70.952,329.439,84.261,329.62,84.261,329.844z"/>
			</g>
			<g>
				<rect x="108.247" y="300.294" style="fill:#F5F5F5;" width="10.064" height="21.221"/>
				<g>
					<path style="fill:#EBEBEB;" d="M144.226,329.844c0,0.224-13.309,0.405-29.722,0.405c-16.419,0-29.725-0.181-29.725-0.405
						c0-0.224,13.306-0.405,29.725-0.405C130.917,329.439,144.226,329.62,144.226,329.844z"/>
				</g>
			</g>
			<g>
				<rect x="108.247" y="342.426" style="fill:#F5F5F5;" width="10.064" height="21.221"/>
				<g>
					<path style="fill:#EBEBEB;" d="M144.226,371.975c0,0.224-13.309,0.405-29.722,0.405c-16.419,0-29.725-0.181-29.725-0.405
						c0-0.224,13.306-0.405,29.725-0.405C130.917,371.57,144.226,371.752,144.226,371.975z"/>
				</g>
			</g>
			<g>
				<rect x="108.247" y="385.829" style="fill:#F5F5F5;" width="10.064" height="21.221"/>
				<g>
					<path style="fill:#EBEBEB;" d="M144.226,415.378c0,0.224-13.309,0.405-29.722,0.405c-16.419,0-29.725-0.181-29.725-0.405
						c0-0.224,13.306-0.405,29.725-0.405C130.917,414.973,144.226,415.155,144.226,415.378z"/>
				</g>
			</g>
			<g>
				<rect x="108.247" y="429.232" style="fill:#F5F5F5;" width="10.064" height="21.221"/>
				<g>
					<path style="fill:#EBEBEB;" d="M144.226,458.781c0,0.224-13.309,0.405-29.722,0.405c-16.419,0-29.725-0.182-29.725-0.405
						c0-0.224,13.306-0.405,29.725-0.405C130.917,458.376,144.226,458.558,144.226,458.781z"/>
				</g>
			</g>
			<rect x="48.282" y="343.069" style="fill:#FFFFFF;" width="10.064" height="21.221"/>
			<g>
				<path style="fill:#E0E0E0;" d="M84.261,372.618c0,0.224-13.309,0.406-29.722,0.406c-16.419,0-29.725-0.182-29.725-0.406
					c0-0.223,13.306-0.405,29.725-0.405C70.952,372.214,84.261,372.395,84.261,372.618z"/>
			</g>
			<rect x="48.282" y="385.844" style="fill:#FFFFFF;" width="10.064" height="21.221"/>
			<g>
				<path style="fill:#E0E0E0;" d="M84.261,415.393c0,0.224-13.309,0.405-29.722,0.405c-16.419,0-29.725-0.181-29.725-0.405
					c0-0.224,13.306-0.405,29.725-0.405C70.952,414.988,84.261,415.17,84.261,415.393z"/>
			</g>
			<rect x="48.282" y="428.619" style="fill:#FFFFFF;" width="10.064" height="21.221"/>
			<g>
				<path style="fill:#E0E0E0;" d="M84.261,458.168c0,0.224-13.309,0.405-29.722,0.405c-16.419,0-29.725-0.181-29.725-0.405
					c0-0.224,13.306-0.405,29.725-0.405C70.952,457.763,84.261,457.944,84.261,458.168z"/>
			</g>
		</g>
	</g>
	<g>
		<rect x="353.822" y="249.434" style="fill:#FAFAFA;" width="70.09" height="222.132"/>
		<rect x="388.867" y="249.434" style="fill:#F5F5F5;" width="35.045" height="221.52"/>
		<rect x="361.825" y="227.626" style="fill:#F5F5F5;" width="24.751" height="21.808"/>
		<rect x="380.676" y="227.626" style="fill:#EBEBEB;" width="5.899" height="21.808"/>
		<polyline style="fill:#E0E0E0;" points="347.98,249.434 347.98,248.162 425.963,248.162 425.963,249.434 		"/>
		<rect x="367.657" y="258.945" style="fill:#FAFAFA;" width="5.933" height="12.51"/>
		<g>
			<path style="fill:#E0E0E0;" d="M388.867,276.364c0,0.132-7.846,0.239-17.522,0.239c-9.679,0-17.523-0.107-17.523-0.239
				s7.844-0.239,17.523-0.239C381.021,276.125,388.867,276.232,388.867,276.364z"/>
		</g>
		<g>
			<rect x="403.007" y="258.945" style="fill:#E0E0E0;" width="5.933" height="12.51"/>
			<g>
				<path style="fill:#E0E0E0;" d="M424.217,276.364c0,0.132-7.846,0.239-17.522,0.239c-9.679,0-17.523-0.107-17.523-0.239
					s7.844-0.239,17.523-0.239C416.371,276.125,424.217,276.232,424.217,276.364z"/>
			</g>
		</g>
		<g>
			<rect x="403.007" y="283.782" style="fill:#E0E0E0;" width="5.933" height="12.51"/>
			<g>
				<path style="fill:#E0E0E0;" d="M424.217,301.201c0,0.132-7.846,0.239-17.522,0.239c-9.679,0-17.523-0.107-17.523-0.239
					c0-0.132,7.844-0.239,17.523-0.239C416.371,300.963,424.217,301.07,424.217,301.201z"/>
			</g>
		</g>
		<g>
			<rect x="403.007" y="309.368" style="fill:#E0E0E0;" width="5.933" height="12.51"/>
			<g>
				<path style="fill:#E0E0E0;" d="M424.217,326.788c0,0.132-7.846,0.239-17.522,0.239c-9.679,0-17.523-0.107-17.523-0.239
					c0-0.132,7.844-0.239,17.523-0.239C416.371,326.549,424.217,326.656,424.217,326.788z"/>
			</g>
		</g>
		<g>
			<rect x="403.007" y="334.955" style="fill:#E0E0E0;" width="5.933" height="12.51"/>
			<g>
				<path style="fill:#E0E0E0;" d="M424.217,352.374c0,0.132-7.846,0.239-17.522,0.239c-9.679,0-17.523-0.107-17.523-0.239
					c0-0.132,7.844-0.239,17.523-0.239C416.371,352.136,424.217,352.242,424.217,352.374z"/>
			</g>
		</g>
		<g>
			<rect x="403.007" y="359.809" style="fill:#E0E0E0;" width="5.933" height="12.51"/>
			<g>
				<path style="fill:#E0E0E0;" d="M424.217,377.229c0,0.132-7.846,0.239-17.522,0.239c-9.679,0-17.523-0.107-17.523-0.239
					c0-0.132,7.844-0.239,17.523-0.239C416.371,376.99,424.217,377.097,424.217,377.229z"/>
			</g>
		</g>
		<g>
			<rect x="403.007" y="384.764" style="fill:#E0E0E0;" width="5.933" height="12.51"/>
			<rect x="403.007" y="410.046" style="fill:#E0E0E0;" width="5.933" height="12.51"/>
			<g>
				<path style="fill:#E0E0E0;" d="M424.217,402.184c0,0.132-7.846,0.239-17.522,0.239c-9.679,0-17.523-0.107-17.523-0.239
					c0-0.132,7.844-0.239,17.523-0.239C416.371,401.945,424.217,402.052,424.217,402.184z"/>
			</g>
		</g>
		<rect x="367.657" y="284.161" style="fill:#FFFFFF;" width="5.933" height="12.51"/>
		<g>
			<path style="fill:#E0E0E0;" d="M388.867,301.581c0,0.132-7.846,0.239-17.522,0.239c-9.679,0-17.523-0.107-17.523-0.239
				c0-0.132,7.844-0.239,17.523-0.239C381.021,301.342,388.867,301.449,388.867,301.581z"/>
		</g>
		<rect x="367.657" y="309.377" style="fill:#FFFFFF;" width="5.933" height="12.51"/>
		<g>
			<path style="fill:#E0E0E0;" d="M388.867,326.797c0,0.132-7.846,0.239-17.522,0.239c-9.679,0-17.523-0.107-17.523-0.239
				c0-0.132,7.844-0.239,17.523-0.239C381.021,326.558,388.867,326.665,388.867,326.797z"/>
		</g>
		<rect x="367.657" y="334.593" style="fill:#FFFFFF;" width="5.933" height="12.51"/>
		<g>
			<path style="fill:#E0E0E0;" d="M388.867,352.013c0,0.132-7.846,0.239-17.522,0.239c-9.679,0-17.523-0.107-17.523-0.239
				c0-0.132,7.844-0.239,17.523-0.239C381.021,351.774,388.867,351.881,388.867,352.013z"/>
		</g>
		<rect x="367.657" y="359.809" style="fill:#FFFFFF;" width="5.933" height="12.51"/>
		<g>
			<path style="fill:#E0E0E0;" d="M388.867,377.229c0,0.132-7.846,0.239-17.522,0.239c-9.679,0-17.523-0.107-17.523-0.239
				c0-0.132,7.844-0.239,17.523-0.239C381.021,376.99,388.867,377.097,388.867,377.229z"/>
		</g>
		<rect x="367.657" y="385.026" style="fill:#FFFFFF;" width="5.933" height="12.51"/>
		<g>
			<path style="fill:#E0E0E0;" d="M388.867,402.445c0,0.132-7.846,0.239-17.522,0.239c-9.679,0-17.523-0.107-17.523-0.239
				c0-0.132,7.844-0.239,17.523-0.239C381.021,402.207,388.867,402.314,388.867,402.445z"/>
		</g>
		<g>
			<rect x="367.657" y="410.242" style="fill:#FFFFFF;" width="5.933" height="12.51"/>
		</g>
		<rect x="368.179" y="441.723" style="fill:#FFFFFF;" width="10.822" height="29.842"/>
	</g>
	<g>
		<g>
			<polygon style="fill:#EBEBEB;" points="481.596,471.565 407.687,471.565 407.365,354.756 481.275,354.756 			"/>
			<rect x="444.32" y="354.756" style="fill:#E0E0E0;" width="36.955" height="116.81"/>
			<rect x="415.804" y="331.76" style="fill:#EBEBEB;" width="26.099" height="22.996"/>
			<rect x="435.683" y="331.76" style="fill:#E0E0E0;" width="6.22" height="22.996"/>
			<rect x="401.205" y="353.414" style="fill:#E0E0E0;" width="82.232" height="1.341"/>
			<rect x="421.954" y="364.785" style="fill:#FFFFFF;" width="6.256" height="13.191"/>
			<g>
				<path style="fill:#E0E0E0;" d="M444.32,383.154c0,0.139-8.273,0.252-18.477,0.252c-10.207,0-18.478-0.113-18.478-0.252
					c0-0.139,8.271-0.252,18.478-0.252C436.046,382.902,444.32,383.015,444.32,383.154z"/>
			</g>
			<g>
				<rect x="459.231" y="364.785" style="fill:#F5F5F5;" width="6.256" height="13.191"/>
				<g>
					<path style="fill:#EBEBEB;" d="M481.596,383.154c0,0.139-8.273,0.252-18.476,0.252c-10.207,0-18.478-0.113-18.478-0.252
						c0-0.139,8.272-0.252,18.478-0.252C473.323,382.902,481.596,383.015,481.596,383.154z"/>
				</g>
			</g>
			<g>
				<rect x="459.231" y="390.976" style="fill:#F5F5F5;" width="6.256" height="13.191"/>
				<g>
					<path style="fill:#EBEBEB;" d="M481.596,409.345c0,0.139-8.273,0.252-18.476,0.252c-10.207,0-18.478-0.113-18.478-0.252
						c0-0.139,8.272-0.252,18.478-0.252C473.323,409.093,481.596,409.206,481.596,409.345z"/>
				</g>
			</g>
			<g>
				<rect x="459.231" y="417.957" style="fill:#F5F5F5;" width="6.256" height="13.192"/>
				<g>
					<path style="fill:#EBEBEB;" d="M481.596,436.325c0,0.139-8.273,0.252-18.476,0.252c-10.207,0-18.478-0.113-18.478-0.252
						c0-0.139,8.272-0.252,18.478-0.252C473.323,436.073,481.596,436.186,481.596,436.325z"/>
				</g>
			</g>
			<g>
				<rect x="459.231" y="444.937" style="fill:#F5F5F5;" width="6.256" height="13.192"/>
				<g>
					<path style="fill:#EBEBEB;" d="M481.596,463.306c0,0.139-8.273,0.252-18.476,0.252c-10.207,0-18.478-0.113-18.478-0.252
						c0-0.139,8.272-0.252,18.478-0.252C473.323,463.054,481.596,463.167,481.596,463.306z"/>
				</g>
			</g>
			<rect x="421.954" y="391.375" style="fill:#FFFFFF;" width="6.256" height="13.192"/>
			<g>
				<path style="fill:#E0E0E0;" d="M444.32,409.744c0,0.139-8.273,0.252-18.477,0.252c-10.207,0-18.478-0.113-18.478-0.252
					c0-0.139,8.271-0.252,18.478-0.252C436.046,409.492,444.32,409.605,444.32,409.744z"/>
			</g>
			<rect x="421.954" y="417.966" style="fill:#FFFFFF;" width="6.256" height="13.192"/>
			<g>
				<path style="fill:#E0E0E0;" d="M444.32,436.335c0,0.139-8.273,0.252-18.477,0.252c-10.207,0-18.478-0.113-18.478-0.252
					s8.271-0.252,18.478-0.252C436.046,436.083,444.32,436.195,444.32,436.335z"/>
			</g>
			<rect x="421.954" y="444.556" style="fill:#FFFFFF;" width="6.256" height="13.191"/>
			<g>
				<path style="fill:#E0E0E0;" d="M444.32,462.925c0,0.139-8.273,0.252-18.477,0.252c-10.207,0-18.478-0.113-18.478-0.252
					c0-0.139,8.271-0.252,18.478-0.252C436.046,462.673,444.32,462.786,444.32,462.925z"/>
			</g>
		</g>
	</g>
	<g>
		<path style="fill:#F5F5F5;" d="M453.66,49.148c0.52-3.778-4.812-6.887-8.819-7.21c-1.911-0.154-3.896,0.138-5.706-0.493
			c-3.922-1.367-5.489-6.434-9.316-8.049c-2.861-1.207-6.155-0.132-8.929,1.264c-2.774,1.396-5.515,3.153-8.614,3.351
			c-2.695,0.172-5.623-0.827-7.981,0.49c-1.757,0.981-2.678,3.006-4.298,4.201c-1.585,1.169-3.652,1.416-5.618,1.523
			c-1.966,0.107-4.002,0.127-5.792,0.947c-1.79,0.82-3.272,2.713-2.9,4.647L453.66,49.148z"/>
	</g>
	<g>
		<path style="fill:#F5F5F5;" d="M98.612,57.811c0.366-2.659-3.386-4.846-6.206-5.074c-1.345-0.108-2.741,0.097-4.015-0.347
			c-2.76-0.962-3.863-4.528-6.556-5.664c-2.013-0.849-4.331-0.093-6.283,0.889c-1.952,0.982-3.881,2.219-6.062,2.358
			c-1.897,0.121-3.957-0.582-5.616,0.345c-1.237,0.691-1.884,2.116-3.024,2.956c-1.115,0.822-2.57,0.997-3.953,1.072
			c-1.384,0.075-2.816,0.089-4.076,0.666c-1.26,0.577-2.302,1.909-2.041,3.27L98.612,57.811z"/>
	</g>
	<g>
		<path style="fill:#F5F5F5;" d="M295.86,37.318c0.366-2.659-3.387-4.846-6.206-5.073c-1.345-0.108-2.741,0.097-4.015-0.347
			c-2.76-0.962-3.862-4.528-6.556-5.664c-2.013-0.849-4.331-0.093-6.283,0.889c-1.952,0.982-3.881,2.219-6.062,2.358
			c-1.897,0.121-3.957-0.582-5.616,0.345c-1.237,0.69-1.884,2.115-3.024,2.956c-1.115,0.822-2.57,0.997-3.953,1.072
			c-1.384,0.075-2.816,0.089-4.076,0.666c-1.26,0.577-2.302,1.909-2.041,3.27L295.86,37.318z"/>
	</g>
</g>
<g id="Background_Simple" style="display:none;">
	<path style="display:inline;fill:#F5F5F5;" d="M435.384,90.104l-2.434-4.01c-20.516-33.808-57.609-54.188-96.717-51.715
		c-5.027,0.318-10.033,0.999-14.971,2.056c-35.557,7.611-66.496,34.5-79.321,68.937c-7.542,20.253-9.649,43.571-23.962,59.647
		c-18.627,20.922-50.251,21.579-78.055,20.712c-27.804-0.867-59.449-0.128-77.985,20.877
		c-11.609,13.154-15.299,31.861-14.362,49.478c2.478,46.641,34.979,88.345,76.311,109.074
		c41.332,20.729,89.996,22.586,135.232,13.467c63.37-12.774,123.634-47.855,159.857-102.038
		C455.199,222.404,464.367,148.585,435.384,90.104z"/>
</g>
<g id="Floor">
	<g>
		<path style="fill:#263238;" d="M471.577,472.222c0,0.144-99.211,0.26-221.566,0.26c-122.397,0-221.587-0.117-221.587-0.26
			c0-0.144,99.19-0.26,221.587-0.26C372.365,471.962,471.577,472.078,471.577,472.222z"/>
	</g>
</g>
<g id="Wind">
	<g>
		<path style="fill:#263238;" d="M30.74,338.792c0,0,0.332-0.271,0.997-0.778c0.674-0.511,1.663-1.261,2.957-2.242
			c2.612-1.953,6.448-4.857,11.481-8.472c5.039-3.603,11.242-7.977,18.774-12.544c7.521-4.561,16.379-9.38,26.791-13.234
			c10.376-3.929,22.405-6.473,35.433-7.18c13.034-0.642,27.036,0.621,41.349,3.8c14.329,3.153,28.916,8.312,43.45,14.866
			c14.553,6.543,29.058,14.478,43.678,22.954c7.299,4.262,14.513,8.473,21.621,12.624c7.138,4.086,14.303,7.903,21.647,10.967
			c3.661,1.553,7.383,2.869,11.127,3.962c3.742,1.097,7.521,1.951,11.309,2.456c7.572,1.049,15.128,0.899,22.346-0.207
			c7.223-1.113,14.108-3.1,20.575-5.57c6.474-2.467,12.528-5.443,18.198-8.625c11.35-6.378,21.137-13.602,29.846-20.429
			c8.724-6.82,16.445-13.212,23.387-18.624c6.93-5.427,13.055-9.904,18.203-13.355c2.559-1.748,4.904-3.191,6.922-4.463
			c2.048-1.223,3.788-2.247,5.204-3.055c1.429-0.771,2.521-1.36,3.266-1.762c0.737-0.394,1.121-0.584,1.121-0.584
			s-0.367,0.222-1.096,0.631c-0.739,0.412-1.822,1.016-3.239,1.806c-1.407,0.822-3.138,1.859-5.175,3.096
			c-2.007,1.285-4.341,2.74-6.89,4.499c-5.126,3.473-11.228,7.97-18.137,13.416c-6.922,5.431-14.624,11.841-23.339,18.685
			c-8.699,6.849-18.492,14.104-29.862,20.515c-5.68,3.199-11.749,6.192-18.245,8.676c-6.489,2.486-13.404,4.49-20.666,5.616
			c-7.257,1.119-14.863,1.277-22.488,0.226c-3.814-0.506-7.617-1.363-11.38-2.464c-3.766-1.096-7.506-2.417-11.183-3.975
			c-7.376-3.074-14.56-6.9-21.707-10.988c-7.11-4.15-14.324-8.361-21.625-12.623c-14.614-8.473-29.102-16.402-43.627-22.94
			c-14.508-6.55-29.057-11.706-43.345-14.863c-14.273-3.184-28.231-4.458-41.224-3.837c-12.986,0.686-24.974,3.199-35.327,7.094
			c-10.389,3.82-19.243,8.606-26.768,13.137c-7.536,4.537-13.753,8.883-18.807,12.459c-5.049,3.588-8.904,6.466-11.537,8.392
			c-1.308,0.963-2.306,1.699-2.988,2.201C31.094,338.55,30.74,338.792,30.74,338.792z"/>
	</g>
	<g>
		<path style="fill:#263238;" d="M341.755,300.657c0.003-0.009,0.125,0.012,0.359,0.059c0.232,0.057,0.578,0.13,1.043,0.13
			c0.905,0.018,2.343-0.192,3.744-1.275c1.389-1.013,2.832-2.878,3.052-5.362c0.223-2.468-1.419-5.293-4.2-6.713
			c-1.369-0.732-3-1.167-4.695-1.142c-1.695,0.008-3.437,0.568-4.974,1.56c-3.095,1.974-5.349,5.612-5.938,9.699
			c-0.604,4.117,0.31,8.54,2.022,12.723c1.741,4.185,4.188,8.272,7.372,11.885c6.318,7.303,14.704,12.013,22.807,13.915
			c4.058,0.982,8.057,1.251,11.763,1.058c3.71-0.187,7.134-0.829,10.171-1.699c6.094-1.75,10.557-4.433,13.445-6.45
			c1.425-1.05,2.516-1.891,3.207-2.518c0.34-0.288,0.608-0.515,0.811-0.686c0.185-0.152,0.283-0.228,0.289-0.221
			c0.006,0.007-0.079,0.094-0.253,0.26c-0.195,0.182-0.452,0.422-0.778,0.726c-0.671,0.655-1.744,1.524-3.158,2.604
			c-2.866,2.077-7.33,4.829-13.461,6.639c-3.055,0.899-6.505,1.568-10.252,1.777c-3.741,0.214-7.786-0.041-11.895-1.022
			c-8.206-1.899-16.698-6.651-23.09-14.04c-3.222-3.655-5.696-7.795-7.452-12.036c-1.727-4.238-2.657-8.752-2.024-12.985
			c0.624-4.214,2.954-7.954,6.181-9.993c1.598-1.022,3.428-1.6,5.201-1.597c1.769-0.015,3.456,0.449,4.873,1.219
			c2.876,1.496,4.578,4.459,4.316,7.06c-0.262,2.597-1.779,4.484-3.223,5.503c-1.459,1.087-2.947,1.269-3.868,1.216
			c-0.474-0.017-0.822-0.109-1.052-0.183C341.869,300.703,341.752,300.665,341.755,300.657z"/>
	</g>
	<g>
		<path style="fill:#263238;" d="M442.452,155.464c-0.008-0.004,0.042-0.118,0.149-0.34c0.058-0.118,0.126-0.255,0.203-0.413
			c0.109-0.153,0.232-0.326,0.37-0.519c0.293-0.384,0.73-0.8,1.307-1.213c0.601-0.372,1.34-0.742,2.238-0.96
			c1.758-0.405,4.244-0.344,6.401,1.252c1.057,0.804,1.88,2.011,2.397,3.409c0.485,1.408,0.66,3.024,0.396,4.657
			c-0.243,1.63-0.881,3.304-1.987,4.742c-1.092,1.447-2.623,2.62-4.366,3.467c-1.752,0.839-3.729,1.33-5.785,1.478
			c-1.027,0.064-2.082,0.074-3.13-0.088c-0.525-0.073-1.057-0.124-1.585-0.218c-0.521-0.129-1.046-0.259-1.574-0.39
			c-2.082-0.619-4.13-1.555-6.012-2.837c-1.865-1.304-3.579-2.891-5.088-4.707c-1.517-1.812-2.752-3.898-3.762-6.111
			c-0.995-2.22-1.751-4.604-2.084-7.09c-0.674-4.974,0.032-9.943,1.605-14.373c1.539-4.458,3.892-8.409,6.519-11.827
			c2.645-3.414,5.595-6.31,8.584-8.706c2.978-2.417,5.951-4.408,8.74-6.087c5.588-3.349,10.359-5.595,13.641-7.154
			c1.629-0.752,2.904-1.34,3.801-1.754c0.418-0.185,0.747-0.331,0.996-0.441c0.226-0.097,0.343-0.142,0.347-0.134
			c0.004,0.008-0.106,0.07-0.324,0.182c-0.243,0.121-0.565,0.283-0.974,0.487c-0.887,0.434-2.147,1.052-3.758,1.841
			c-3.253,1.613-7.994,3.909-13.537,7.285c-2.766,1.692-5.712,3.691-8.658,6.107c-2.959,2.396-5.868,5.275-8.477,8.664
			c-2.591,3.392-4.907,7.304-6.418,11.702c-1.545,4.368-2.232,9.264-1.571,14.131c1.449,9.702,8.31,18.057,16.563,20.359
			c0.514,0.129,1.025,0.258,1.533,0.385c0.514,0.094,1.033,0.144,1.545,0.218c1.022,0.163,2.048,0.156,3.049,0.098
			c2.003-0.136,3.929-0.606,5.63-1.411c1.691-0.812,3.176-1.939,4.233-3.323c1.068-1.37,1.696-2.981,1.942-4.553
			c0.267-1.575,0.109-3.134-0.344-4.491c-0.484-1.344-1.267-2.515-2.264-3.288c-2.041-1.549-4.458-1.652-6.177-1.285
			c-0.878,0.197-1.604,0.543-2.199,0.892c-0.571,0.389-1.009,0.784-1.31,1.149c-0.143,0.184-0.271,0.349-0.385,0.495
			c-0.085,0.151-0.159,0.282-0.223,0.395C442.527,155.36,442.46,155.467,442.452,155.464z"/>
	</g>
	<g>
		<path style="fill:#263238;" d="M391.32,83.904c-0.04-0.013,0.173-0.461,0.342-1.365c0.179-0.894,0.254-2.294-0.268-3.963
			c-0.24-0.836-0.661-1.721-1.247-2.6c-0.582-0.881-1.354-1.757-2.345-2.491c-0.983-0.736-2.183-1.347-3.546-1.627
			c-1.361-0.28-2.873-0.258-4.368,0.145c-2.985,0.772-5.964,2.946-7.653,6.183c-1.703,3.229-1.806,7.454-0.365,11.289
			c1.39,3.883,4.425,7.277,8.301,9.518c3.872,2.277,8.494,3.469,13.249,3.758c4.771,0.305,9.451-0.166,13.927-0.763
			c4.482-0.592,8.776-1.379,12.831-2.283c4.058-0.896,7.87-1.938,11.407-3.012c3.54-1.064,6.798-2.185,9.744-3.281
			c5.897-2.186,10.555-4.249,13.751-5.718c1.603-0.725,2.831-1.324,3.669-1.719c0.401-0.186,0.717-0.332,0.956-0.444
			c0.217-0.097,0.33-0.143,0.334-0.135c0.004,0.008-0.101,0.07-0.31,0.183c-0.234,0.123-0.543,0.285-0.934,0.49
			c-0.824,0.426-2.038,1.054-3.629,1.809c-3.172,1.528-7.815,3.646-13.708,5.88c-2.945,1.12-6.203,2.264-9.747,3.349
			c-3.54,1.095-7.36,2.155-11.427,3.067c-4.065,0.92-8.372,1.72-12.87,2.321c-4.489,0.605-9.198,1.085-14.028,0.777
			c-4.813-0.292-9.521-1.505-13.473-3.838c-1.975-1.155-3.744-2.593-5.201-4.251c-1.46-1.662-2.558-3.563-3.291-5.541
			c-1.469-3.947-1.353-8.307,0.432-11.655c1.77-3.346,4.85-5.562,7.945-6.34c1.549-0.405,3.117-0.415,4.526-0.112
			c1.417,0.304,2.65,0.95,3.655,1.719c1.012,0.767,1.792,1.676,2.376,2.586c0.588,0.908,1.003,1.82,1.234,2.679
			c0.503,1.715,0.391,3.143,0.176,4.042c-0.072,0.463-0.233,0.787-0.307,1.013C391.375,83.796,391.328,83.908,391.32,83.904z"/>
	</g>
</g>
<g id="Plants">
	<g>
		<g>
			<path style="fill:#263238;" d="M69.807,443.872c0.03-0.021,0.318,0.341,0.815,1.011c0.499,0.669,1.195,1.656,2.035,2.889
				c1.681,2.466,3.907,5.939,6.186,9.883c2.277,3.947,4.172,7.612,5.467,10.3c0.648,1.344,1.155,2.44,1.485,3.206
				c0.332,0.766,0.501,1.196,0.468,1.211s-0.263-0.386-0.651-1.123c-0.434-0.832-0.98-1.88-1.631-3.129
				c-1.377-2.641-3.319-6.269-5.59-10.205c-2.273-3.933-4.443-7.428-6.042-9.941c-0.756-1.189-1.391-2.186-1.894-2.977
				C70.01,444.293,69.778,443.893,69.807,443.872z"/>
		</g>
		<g>
			<path style="fill:#263238;" d="M74.688,426.725c0.015-0.009,0.118,0.129,0.298,0.402c0.208,0.327,0.462,0.725,0.769,1.206
				c0.664,1.05,1.572,2.602,2.644,4.548c2.149,3.888,4.858,9.412,7.316,15.736c2.449,6.33,4.173,12.237,5.207,16.557
				c0.52,2.16,0.896,3.918,1.113,5.141c0.098,0.563,0.179,1.028,0.245,1.409c0.05,0.323,0.068,0.494,0.051,0.498
				c-0.018,0.004-0.07-0.161-0.154-0.477c-0.092-0.376-0.205-0.833-0.341-1.387c-0.278-1.208-0.707-2.951-1.272-5.093
				c-1.123-4.286-2.895-10.152-5.336-16.459c-2.449-6.301-5.094-11.828-7.155-15.75c-1.027-1.963-1.884-3.54-2.494-4.619
				c-0.273-0.501-0.499-0.915-0.684-1.255C74.745,426.892,74.673,426.735,74.688,426.725z"/>
		</g>
		<g>
			<path style="fill:#263238;" d="M88.316,438.933c0.033-0.014,0.255,0.422,0.628,1.225c0.376,0.801,0.887,1.975,1.49,3.438
				c1.208,2.924,2.739,7.024,4.177,11.635c1.434,4.614,2.501,8.858,3.166,11.952c0.334,1.546,0.58,2.803,0.725,3.676
				c0.148,0.872,0.213,1.358,0.178,1.365c-0.035,0.007-0.167-0.465-0.376-1.323c-0.233-0.956-0.53-2.175-0.885-3.634
				c-0.756-3.065-1.875-7.281-3.305-11.88c-1.433-4.597-2.904-8.702-4.022-11.655c-0.535-1.402-0.983-2.575-1.334-3.494
				C88.442,439.411,88.283,438.947,88.316,438.933z"/>
		</g>
		<g>
			<path style="fill:#263238;" d="M329.668,441.311c0.033-0.015,0.25,0.394,0.613,1.145c0.366,0.75,0.867,1.849,1.464,3.216
				c1.195,2.734,2.738,6.56,4.247,10.858c1.506,4.3,2.69,8.253,3.464,11.134c0.388,1.441,0.682,2.612,0.865,3.426
				c0.185,0.814,0.27,1.268,0.236,1.277c-0.035,0.009-0.187-0.428-0.431-1.224c-0.272-0.897-0.615-2.029-1.023-3.377
				c-0.864-2.851-2.1-6.775-3.602-11.064c-1.504-4.286-2.99-8.123-4.095-10.889c-0.523-1.308-0.962-2.406-1.31-3.277
				C329.789,441.761,329.635,441.325,329.668,441.311z"/>
		</g>
		<g>
			<path style="fill:#263238;" d="M337.642,425.365c0.017-0.006,0.091,0.147,0.217,0.444c0.143,0.356,0.317,0.789,0.526,1.311
				c0.454,1.14,1.053,2.812,1.741,4.896c1.38,4.165,3.012,10.02,4.24,16.608c1.219,6.593,1.797,12.644,2.003,17.027
				c0.106,2.192,0.147,3.967,0.133,5.194c-0.008,0.563-0.015,1.029-0.021,1.412c-0.011,0.323-0.025,0.493-0.043,0.493
				c-0.018,0-0.039-0.169-0.062-0.491c-0.021-0.382-0.046-0.848-0.077-1.409c-0.048-1.224-0.145-2.993-0.297-5.176
				c-0.3-4.366-0.934-10.386-2.148-16.954c-1.223-6.564-2.793-12.409-4.079-16.592c-0.641-2.092-1.186-3.779-1.58-4.939
				c-0.173-0.536-0.316-0.979-0.434-1.343C337.667,425.537,337.625,425.371,337.642,425.365z"/>
		</g>
		<g>
			<path style="fill:#263238;" d="M348.108,438.275c0.035-0.008,0.171,0.455,0.387,1.299c0.219,0.843,0.5,2.072,0.818,3.596
				c0.639,3.048,1.38,7.293,1.929,12.016c0.546,4.725,0.796,9.027,0.871,12.14c0.039,1.557,0.046,2.817,0.026,3.688
				c-0.017,0.871-0.043,1.352-0.079,1.353c-0.036,0-0.078-0.48-0.124-1.349c-0.051-0.97-0.115-2.203-0.191-3.677
				c-0.17-3.103-0.477-7.386-1.021-12.095c-0.548-4.708-1.229-8.947-1.774-12.006c-0.263-1.452-0.482-2.667-0.655-3.623
				C348.142,438.76,348.073,438.283,348.108,438.275z"/>
		</g>
		<g>
			<path style="fill:#263238;" d="M438.102,440.2c0.033,0.015-0.127,0.464-0.443,1.265c-0.354,0.895-0.804,2.03-1.34,3.386
				c-1.127,2.86-2.621,6.834-4.138,11.271c-1.514,4.44-2.77,8.497-3.653,11.442c-0.42,1.396-0.772,2.566-1.049,3.488
				c-0.251,0.823-0.407,1.274-0.441,1.265c-0.035-0.009,0.055-0.477,0.246-1.317c0.189-0.84,0.492-2.049,0.89-3.536
				c0.794-2.975,1.997-7.059,3.515-11.51c1.52-4.448,3.074-8.413,4.29-11.243c0.606-1.416,1.119-2.552,1.495-3.327
				C437.847,440.608,438.069,440.186,438.102,440.2z"/>
		</g>
		<g>
			<path style="fill:#263238;" d="M430.128,424.255c0.017,0.006-0.025,0.174-0.12,0.487c-0.119,0.368-0.264,0.816-0.439,1.359
				c-0.399,1.173-0.947,2.881-1.589,5c-1.291,4.236-2.849,10.158-4.065,16.803c-1.207,6.649-1.842,12.741-2.144,17.159
				c-0.154,2.209-0.251,4-0.3,5.238c-0.031,0.569-0.056,1.04-0.077,1.426c-0.023,0.326-0.044,0.497-0.062,0.497
				c-0.018,0-0.032-0.172-0.043-0.498c-0.006-0.387-0.012-0.859-0.021-1.429c-0.013-1.241,0.028-3.038,0.135-5.255
				c0.209-4.434,0.789-10.556,2-17.23c1.22-6.67,2.842-12.602,4.226-16.82c0.689-2.111,1.292-3.804,1.749-4.958
				c0.212-0.53,0.387-0.968,0.531-1.327C430.036,424.404,430.111,424.249,430.128,424.255z"/>
		</g>
		<g>
			<path style="fill:#263238;" d="M419.662,437.165c0.035,0.008-0.036,0.499-0.194,1.378c-0.173,0.979-0.393,2.229-0.656,3.725
				c-0.541,3.147-1.189,7.509-1.702,12.353c-0.509,4.845-0.797,9.248-0.96,12.437c-0.075,1.518-0.138,2.786-0.187,3.779
				c-0.045,0.893-0.087,1.386-0.123,1.386c-0.036,0-0.062-0.495-0.079-1.39c-0.02-0.895-0.014-2.189,0.022-3.789
				c0.069-3.199,0.3-7.618,0.81-12.478c0.515-4.858,1.223-9.228,1.858-12.365c0.315-1.569,0.598-2.833,0.82-3.7
				C419.489,437.633,419.627,437.157,419.662,437.165z"/>
		</g>
		<g>
			<path style="fill:#263238;" d="M168.052,434.294c0.035-0.006,0.16,0.515,0.354,1.463c0.198,0.948,0.447,2.327,0.721,4.036
				c0.552,3.418,1.155,8.168,1.517,13.441c0.357,5.275,0.403,10.064,0.32,13.525c-0.041,1.731-0.1,3.13-0.168,4.096
				c-0.064,0.966-0.117,1.499-0.153,1.497c-0.036-0.001-0.052-0.537-0.05-1.504c0.001-1.062,0.001-2.438,0.002-4.093
				c-0.011-3.455-0.115-8.227-0.471-13.486c-0.36-5.257-0.904-9.999-1.362-13.423c-0.225-1.639-0.412-3.003-0.557-4.055
				C168.074,434.834,168.017,434.301,168.052,434.294z"/>
		</g>
		<g>
			<path style="fill:#263238;" d="M275.613,453.323c0.14,0.031-0.674,4.248-1.818,9.417c-1.145,5.171-2.187,9.336-2.327,9.305
				c-0.14-0.031,0.674-4.247,1.819-9.418C274.43,457.458,275.472,453.292,275.613,453.323z"/>
		</g>
		<g>
			<path style="fill:#263238;" d="M267.855,431.181c0.144,0.006-0.113,9.222-0.573,20.582c-0.46,11.364-0.949,20.568-1.093,20.563
				c-0.144-0.006,0.113-9.22,0.573-20.584C267.222,440.382,267.712,431.176,267.855,431.181z"/>
		</g>
		<g>
			<path style="fill:#263238;" d="M255.605,447.013c0.034-0.012,0.186,0.315,0.433,0.919c0.249,0.603,0.579,1.487,0.962,2.588
				c0.766,2.202,1.707,5.287,2.525,8.752c0.814,3.467,1.349,6.648,1.645,8.961c0.149,1.156,0.248,2.094,0.294,2.745
				c0.049,0.65,0.058,1.011,0.023,1.016c-0.077,0.009-0.291-1.415-0.681-3.706c-0.388-2.291-0.977-5.446-1.788-8.896
				c-0.814-3.448-1.694-6.534-2.368-8.758C255.975,448.409,255.532,447.039,255.605,447.013z"/>
		</g>
	</g>
</g>
<g id="Character">
	<g>
		<g>
			<path style="fill:#FFBE9D;" d="M316.23,203.863l-10.603-1.532c0,0-1.386,0.693,0.346,2.495c1.732,1.802,7.969,2.98,7.969,2.98
				L316.23,203.863z"/>
			<g>
				<g>
					<path style="fill:#E0E0E0;" d="M385.206,134.611c-1.865,0.533-100.213,99.999-100.213,99.999"/>
					<g>
						<path style="fill:#263238;" d="M284.993,234.61c-0.006-0.006,0.074-0.101,0.238-0.279c0.184-0.195,0.427-0.453,0.736-0.781
							c0.677-0.701,1.639-1.696,2.867-2.967c2.529-2.581,6.15-6.279,10.617-10.838c8.984-9.133,21.425-21.718,35.215-35.571
							c13.795-13.856,26.329-26.353,35.468-35.331c4.569-4.489,8.29-8.099,10.895-10.56c1.302-1.231,2.325-2.174,3.038-2.794
							c0.364-0.303,0.617-0.554,0.832-0.684c0.203-0.139,0.305-0.203,0.308-0.195c0.002,0.008-0.094,0.091-0.28,0.24
							c-0.191,0.135-0.441,0.404-0.79,0.717c-0.688,0.643-1.688,1.609-2.967,2.862c-2.566,2.542-6.242,6.184-10.776,10.675
							c-9.066,9.087-21.558,21.606-35.358,35.437c-13.784,13.839-26.264,26.368-35.322,35.462
							c-4.516,4.51-8.178,8.168-10.734,10.721c-1.258,1.241-2.243,2.214-2.936,2.898c-0.324,0.312-0.58,0.559-0.773,0.744
							C285.093,234.535,284.999,234.616,284.993,234.61z"/>
					</g>
				</g>
				<g>
					<path style="fill:#E0E0E0;" d="M286.129,235.733l-2.272-2.247c0.246-0.248,24.873-25.153,49.411-49.803
						c49.934-50.161,50.801-50.409,51.498-50.608l0.879,3.072c0.216-0.062,0.348-0.152,0.363-0.162
						C383.026,138.072,324.644,196.781,286.129,235.733z"/>
					<g>
						<path style="fill:#263238;" d="M286.129,235.733c0,0,0.173-0.192,0.508-0.541c0.346-0.358,0.841-0.869,1.487-1.536
							c1.313-1.346,3.229-3.31,5.696-5.838c5.004-5.076,12.23-12.405,21.172-21.476c8.984-9.051,19.688-19.835,31.597-31.833
							c5.978-5.978,12.259-12.259,18.776-18.776c3.273-3.245,6.607-6.548,9.991-9.903c1.703-1.667,3.419-3.347,5.147-5.038
							c0.871-0.839,1.746-1.681,2.623-2.526c0.878-0.841,1.767-1.682,2.733-2.493l0.298,0.427c-0.144,0.095-0.283,0.151-0.439,0.198
							l-0.249,0.075l-0.073-0.253c-0.278-0.97-0.578-2.019-0.879-3.072l0.322,0.179c-0.094,0.024-0.193,0.086-0.295,0.143
							c-1.668,1.298-3.224,2.877-4.79,4.343c-1.549,1.504-3.089,3-4.62,4.486c-3.038,2.998-6.039,5.959-8.996,8.876
							c-5.885,5.865-11.597,11.557-17.091,17.031c-10.948,10.984-21.023,21.092-29.864,29.961
							c-17.657,17.693-30.362,30.423-35.288,35.359l0-0.076c0.731,0.742,1.285,1.305,1.668,1.694
							C285.938,235.526,286.129,235.733,286.129,235.733s-0.191-0.17-0.576-0.537c-0.399-0.384-0.974-0.939-1.734-1.671
							l-0.039-0.038l0.038-0.039c4.897-4.965,17.526-17.77,35.079-35.567c8.822-8.887,18.877-19.016,29.803-30.023
							c5.488-5.48,11.195-11.178,17.076-17.049c2.956-2.92,5.956-5.883,8.994-8.883c1.532-1.488,3.073-2.985,4.623-4.491
							c1.588-1.482,3.083-3.018,4.863-4.402c0.141-0.083,0.281-0.167,0.438-0.209l0.252-0.068l0.071,0.247
							c0.301,1.052,0.602,2.102,0.879,3.072l-0.322-0.179c0.105-0.029,0.221-0.082,0.285-0.125l0.298,0.427
							c-0.907,0.768-1.794,1.601-2.674,2.445c-0.876,0.843-1.749,1.683-2.619,2.521c-1.727,1.69-3.443,3.368-5.146,5.034
							c-3.386,3.352-6.72,6.653-9.995,9.895c-6.525,6.509-12.812,12.782-18.798,18.752c-11.939,11.968-22.67,22.725-31.676,31.753
							c-8.991,9.022-16.257,16.312-21.289,21.36c-2.519,2.511-4.476,4.462-5.817,5.799c-0.654,0.646-1.155,1.141-1.505,1.488
							C286.302,235.577,286.129,235.733,286.129,235.733z"/>
					</g>
				</g>
			</g>
			<path style="fill:#FFBE9D;" d="M300.056,220.369l1.869-5.446c0,0,2.374-10.564,2.583-11.69s3.73,0.045,3.54,3.837
				c-0.191,3.793-0.811,4.611-0.03,5.378c0.781,0.767,2.844-1.604,2.844-1.604l6.601-6.916l3.221,9.501
				c0.478,1.411,0.147,2.968-0.868,4.059c-1.531,1.646-3.761,4.088-5.049,5.696c-1.362,1.701-10.239,9.958-10.239,9.958
				L300.056,220.369z"/>
			<g>
				<path style="fill:#EB996E;" d="M308.808,212.699c0.025,0.016-0.153,0.203-0.532,0.117c-0.18-0.045-0.392-0.157-0.558-0.378
					c-0.16-0.216-0.254-0.512-0.285-0.825c-0.144-1.245,0.345-2.871,0.497-4.61c0.059-0.872-0.036-1.705-0.333-2.375
					c-0.284-0.674-0.797-1.129-1.29-1.378c-1.023-0.524-1.761-0.112-1.775-0.204c-0.014-0.024,0.131-0.159,0.468-0.259
					c0.333-0.098,0.874-0.12,1.46,0.128c0.578,0.233,1.218,0.742,1.572,1.512c0.367,0.756,0.48,1.684,0.417,2.609
					c-0.063,0.933-0.268,1.777-0.411,2.539c-0.149,0.758-0.245,1.45-0.239,2.012c-0.004,0.564,0.259,0.927,0.54,1.037
					C308.612,212.747,308.793,212.659,308.808,212.699z"/>
			</g>
		</g>
		<g>
			<path style="fill:#FF725E;" d="M206.998,295.939l-20.801-7.462l-14.61,9.889c-1.213,2.544-2.33,5.179-2.72,7.971
				c-0.39,2.792,0.014,5.787,1.633,8.095c1.808,2.578,4.875,3.986,7.929,4.752c3.054,0.766,6.227,1.01,9.255,1.873
				c8.899,2.538,15.815,10.854,16.814,20.032c0.04,0.364,0.07,0.728,0.091,1.094l8.53-18.584
				C212.38,322.272,206.998,295.939,206.998,295.939z"/>
			<g style="opacity:0.3;">
				<path d="M206.998,295.939l-20.801-7.462l-14.61,9.889c-1.213,2.544-2.33,5.179-2.72,7.971c-0.39,2.792,0.014,5.787,1.633,8.095
					c1.808,2.578,4.875,3.986,7.929,4.752c3.054,0.766,6.227,1.01,9.255,1.873c8.899,2.538,15.815,10.854,16.814,20.032
					c0.04,0.364,0.07,0.728,0.091,1.094l8.53-18.584C212.38,322.272,206.998,295.939,206.998,295.939z"/>
			</g>
		</g>
		<g>
			<path style="fill:#263238;" d="M274.283,109.653c-3.042,1.432-5.821,3.325-8.572,5.258c-2.751,1.933-5.767,3.73-9.116,4.036
				c-6.82,0.623-12.952-5.011-19.795-4.753c-5.372,0.202-9.843,3.936-14.192,7.095c-4.349,3.159-9.825,6.012-14.893,4.219
				c-0.724-0.256-1.431-0.606-2.197-0.662c-0.766-0.056-1.633,0.281-1.893,1.003c-0.128,0.356-0.092,0.748-0.049,1.124
				c0.59,5.156,2.072,10.209,4.359,14.868c1.522,3.1,3.523,6.147,6.544,7.82c3.021,1.673,7.261,1.541,9.503-1.085
				c-0.312,2.679-2.578,5.006-5.248,5.388c0.839,2.175,1.694,4.379,3.071,6.261c1.377,1.881,3.363,3.434,5.669,3.778
				c5.094,0.759,9.314-4.315,14.403-4.926c-0.234,0.296-0.466,0.593-0.697,0.885c-1.807,2.287-4.039,4.632-6.942,4.898
				c-0.964,0.088-1.942-0.065-2.898,0.083c-0.956,0.149-1.952,0.718-2.169,1.661c-0.142,0.621,0.081,1.261,0.301,1.859
				c0.551,1.497,1.102,2.994,1.653,4.49c0.34,0.925,0.759,1.938,1.652,2.354c0.677,0.315,1.466,0.204,2.204,0.088
				c3.45-0.548,6.901-1.096,10.351-1.644c6.241-0.991,12.542-1.998,18.411-4.34c1.914-0.764,3.922-1.815,4.746-3.703
				c0.439-1.007,0.484-2.135,0.522-3.232c0.081-2.343,0.163-4.685,0.244-7.028c4.77-0.608,13.089,1.175,15.811,2.697l18.797-39.875
				C294.363,99.371,276.346,108.681,274.283,109.653z"/>
			<g>
				<g>
					<path style="fill:#263238;" d="M299.286,116.56c6.341-3.012,11.875,3.846,12.633,9.897c0.759,6.05-2.841,17.912-5.001,23.615
						c-2.467,6.516-5.568,17.329-10.536,22.214c-5.929,5.831-12.107,0.965-20.41,0.501c-8.303-0.464-10.52-4.569-15.763-11.025
						L299.286,116.56z"/>
				</g>
				<g>
					<g>
						<g>
							<g>
								<path style="fill:#FFBE9D;" d="M254.41,171.9l14.118-51.326c0.636-2.255,2.891-3.648,5.191-3.208l24.671,1.157
									c7.574,1.449,9.713,11.965,7.944,19.471c-1.966,8.339-4.695,18.442-7.516,24.253c-5.672,11.685-15.555,10.394-15.555,10.394
									c-2.193,7.011-2.192,7.012-2.193,7.011l-2.295,8.099L254.41,171.9z"/>
							</g>
						</g>
					</g>
					<g>
						<g>
							<g>
								<g>
									<g>
										<g>
											<g>
												<g>
													<g>
														<g>
															<g>
																<g>
																	<g>
																		<g>
																			<g>
																				<g>
																					<g>
																						<g>
																							<g>
																								<path style="fill:#263238;" d="M300.235,147.804c-0.222,0.84-1.118,1.345-2,1.128
																									c-0.88-0.216-1.415-1.071-1.192-1.912c0.223-0.84,1.118-1.345,1.998-1.129
																									C299.923,146.107,300.458,146.963,300.235,147.804z"/>
																							</g>
																						</g>
																					</g>
																				</g>
																			</g>
																		</g>
																	</g>
																</g>
															</g>
														</g>
													</g>
												</g>
											</g>
										</g>
									</g>
									<g>
										<g>
											<g>
												<g>
													<g>
														<g>
															<g>
																<g>
																	<g>
																		<g>
																			<g>
																				<g>
																					<g>
																						<g>
																							<g>
																								<g>
																									<path style="fill:#263238;" d="M302.583,142.543c-0.257,0.146-1.183-1.098-2.878-1.608
																										c-1.686-0.533-3.194-0.038-3.315-0.301c-0.063-0.12,0.249-0.43,0.91-0.66
																										c0.652-0.231,1.677-0.337,2.731-0.012c1.054,0.326,1.823,0.984,2.213,1.536
																										C302.643,142.055,302.707,142.48,302.583,142.543z"/>
																								</g>
																							</g>
																						</g>
																					</g>
																				</g>
																			</g>
																		</g>
																	</g>
																</g>
															</g>
														</g>
													</g>
												</g>
											</g>
										</g>
									</g>
								</g>
								<g>
									<g>
										<g>
											<g>
												<g>
													<g>
														<g>
															<g>
																<g>
																	<g>
																		<g>
																			<g>
																				<g>
																					<g>
																						<g>
																							<g>
																								<path style="fill:#263238;" d="M284.358,142.441c-0.223,0.84-1.118,1.344-2,1.128
																									c-0.88-0.216-1.415-1.071-1.192-1.912c0.223-0.84,1.118-1.346,1.999-1.13
																									C284.046,140.745,284.581,141.601,284.358,142.441z"/>
																							</g>
																						</g>
																					</g>
																				</g>
																			</g>
																		</g>
																	</g>
																</g>
															</g>
														</g>
													</g>
												</g>
											</g>
										</g>
									</g>
									<g>
										<g>
											<g>
												<g>
													<g>
														<g>
															<g>
																<g>
																	<g>
																		<g>
																			<g>
																				<g>
																					<g>
																						<g>
																							<g>
																								<g>
																									<path style="fill:#263238;" d="M285.834,137.809c-0.258,0.146-1.185-1.099-2.879-1.607
																										c-1.686-0.533-3.194-0.039-3.315-0.302c-0.062-0.119,0.247-0.43,0.91-0.659
																										c0.652-0.231,1.676-0.337,2.73-0.013c1.053,0.326,1.823,0.984,2.213,1.536
																										C285.893,137.321,285.958,137.746,285.834,137.809z"/>
																								</g>
																							</g>
																						</g>
																					</g>
																				</g>
																			</g>
																		</g>
																	</g>
																</g>
															</g>
														</g>
													</g>
												</g>
											</g>
										</g>
									</g>
								</g>
								<g>
									<g>
										<g>
											<g>
												<g>
													<g>
														<g>
															<g>
																<g>
																	<g>
																		<g>
																			<g>
																				<g>
																					<g>
																						<g>
																							<g>
																								<path style="fill:#263238;" d="M288.172,152.237c0.022-0.098,1.13,0.039,2.902,0.338
																									c0.446,0.087,0.882,0.125,1.044-0.148c0.197-0.282,0.157-0.803,0.1-1.37
																									c-0.089-1.17-0.182-2.397-0.28-3.682c-0.354-5.229-0.471-9.476-0.26-9.488
																									c0.211-0.013,0.669,4.216,1.023,9.445c0.077,1.286,0.151,2.513,0.221,3.686
																									c0.015,0.541,0.127,1.184-0.291,1.766c-0.215,0.288-0.603,0.426-0.903,0.417
																									c-0.303,0.001-0.548-0.069-0.766-0.121C289.217,152.651,288.15,152.336,288.172,152.237z"/>
																							</g>
																						</g>
																					</g>
																				</g>
																			</g>
																		</g>
																	</g>
																</g>
															</g>
														</g>
													</g>
												</g>
											</g>
										</g>
									</g>
								</g>
								<g>
									<g>
										<g>
											<g>
												<g>
													<g>
														<g>
															<g>
																<g>
																	<g>
																		<g>
																			<g>
																				<g>
																					<g>
																						<g>
																							<path style="fill:#EB996E;" d="M283.263,172.641c0,0-8.421-1.972-15.111-9.371
																								c0,0,1.473,10.001,14.108,12.579L283.263,172.641z"/>
																						</g>
																					</g>
																				</g>
																			</g>
																		</g>
																	</g>
																</g>
															</g>
														</g>
													</g>
												</g>
											</g>
										</g>
									</g>
								</g>
								<g>
									<g>
										<g>
											<g>
												<g>
													<g>
														<g>
															<g>
																<g>
																	<g>
																		<g>
																			<g>
																				<g>
																					<g>
																						<g>
																							<path style="fill:#EB996E;" d="M286.7,156.19c-0.469-1.408-1.592-2.524-2.88-2.861
																								c-0.893-0.234-1.882-0.088-2.597,0.537c-0.715,0.624-1.091,1.765-0.79,2.75
																								c0.339,1.11,1.422,1.764,2.449,1.823c1.027,0.058,2.016-0.357,2.962-0.786
																								c0.262-0.119,0.53-0.245,0.728-0.472c0.198-0.226,0.309-0.581,0.194-0.88"/>
																						</g>
																					</g>
																				</g>
																			</g>
																		</g>
																	</g>
																</g>
															</g>
														</g>
													</g>
												</g>
											</g>
										</g>
									</g>
								</g>
							</g>
						</g>
					</g>
					<g>
						<g>
							<g>
								<g>
									<g>
										<g>
											<g>
												<g>
													<g>
														<g>
															<g>
																<g>
																	<g>
																		<g>
																			<g>
																				<path style="fill:#263238;" d="M288.374,134.303c-0.307,0.41-1.932-0.321-3.992-0.684
																					c-2.053-0.405-3.832-0.309-3.971-0.802c-0.058-0.233,0.353-0.582,1.137-0.831
																					c0.777-0.25,1.931-0.363,3.164-0.133c1.233,0.231,2.268,0.752,2.902,1.266
																					C288.255,133.633,288.513,134.106,288.374,134.303z"/>
																			</g>
																		</g>
																	</g>
																</g>
															</g>
														</g>
													</g>
												</g>
											</g>
										</g>
									</g>
								</g>
							</g>
						</g>
					</g>
					<g>
						<g>
							<g>
								<g>
									<g>
										<g>
											<g>
												<g>
													<g>
														<g>
															<g>
																<g>
																	<g>
																		<g>
																			<g>
																				<path style="fill:#263238;" d="M303.755,136.531c-0.414,0.294-1.461-0.459-2.858-0.903
																					c-1.382-0.493-2.67-0.527-2.822-1.013c-0.061-0.232,0.244-0.561,0.873-0.767
																					c0.622-0.208,1.568-0.245,2.524,0.077c0.954,0.323,1.684,0.925,2.053,1.467
																					C303.901,135.938,303.943,136.383,303.755,136.531z"/>
																			</g>
																		</g>
																	</g>
																</g>
															</g>
														</g>
													</g>
												</g>
											</g>
										</g>
									</g>
								</g>
							</g>
						</g>
					</g>
					<g>
						<g>
							<g>
								<g>
									<g>
										<g>
											<g>
												<path style="fill:#FFBE9D;" d="M267.206,138.972c0.742-2.65-2.261-4.274-4.957-3.724
													c-1.48,0.302-2.911,1.426-3.723,4.231c-2.165,7.48,5.792,8.11,5.867,7.9
													C264.44,147.248,266.338,142.075,267.206,138.972z"/>
											</g>
										</g>
									</g>
								</g>
							</g>
						</g>
					</g>
					<g>
						<g>
							<g>
								<g>
									<g>
										<g>
											<g>
												<g>
													<path style="fill:#EB996E;" d="M262.929,143.884c-0.026-0.033-0.157,0.054-0.406,0.091
														c-0.243,0.036-0.632-0.003-0.98-0.262c-0.706-0.519-1.009-1.966-0.655-3.325c0.178-0.686,0.508-1.293,0.905-1.76
														c0.387-0.481,0.851-0.761,1.269-0.717c0.423,0.023,0.635,0.343,0.666,0.579c0.04,0.238-0.051,0.374-0.015,0.398
														c0.016,0.025,0.197-0.079,0.226-0.405c0.012-0.157-0.025-0.359-0.159-0.554c-0.137-0.198-0.38-0.349-0.665-0.399
														c-0.588-0.127-1.261,0.253-1.697,0.766c-0.468,0.506-0.855,1.184-1.055,1.954c-0.388,1.521-0.025,3.155,0.966,3.78
														c0.487,0.29,0.971,0.258,1.249,0.147C262.863,144.061,262.951,143.905,262.929,143.884z"/>
												</g>
											</g>
										</g>
									</g>
								</g>
							</g>
						</g>
					</g>
				</g>
			</g>
			<path style="fill:#263238;" d="M265.757,140.359c1.645,2.126,5.703-1.072,8.047-2.388c2.344-1.316,3.956-3.592,5.645-5.684
				c1.689-2.092,3.694-4.164,6.313-4.77c3.341-0.772,6.892,1.028,10.219,0.196c3.181-0.796,5.278-3.739,7.089-6.472
				c0.471-0.711,0.964-1.542,0.737-2.364c-0.142-0.516-0.544-0.913-0.93-1.284c-2.417-2.323-4.858-4.666-7.714-6.42
				c-2.856-1.755-6.201-2.899-9.538-2.586c-4.32-1.081-9.033,0.448-12.417,3.342c-3.385,2.894-5.553,7.005-6.81,11.277
				s-2.081,7.045-2.456,11.482"/>
			<g>
				<path style="fill:#263238;" d="M207.874,114.376c0.218-0.095,0.534,1.29,2.374,2.498c0.907,0.583,2.188,1.075,3.712,1.168
					c1.504,0.099,3.254-0.313,5.039-1.162c1.801-0.843,3.621-2.12,5.663-3.529c2.048-1.373,4.389-2.942,7.39-3.627
					c3.023-0.706,6.256-0.065,9.186,0.955c2.943,1.047,5.736,2.506,8.612,3.619c1.436,0.588,2.866,0.983,4.272,1.259
					c1.408,0.236,2.785,0.231,4.1,0.004c2.627-0.484,4.964-2.117,7.3-3.603c2.325-1.539,4.876-2.827,7.329-3.521
					c2.461-0.731,4.84-1.043,7.003-1.08c2.166-0.037,4.115,0.201,5.787,0.549c1.668,0.38,3.065,0.843,4.161,1.324
					c2.195,0.962,3.228,1.804,3.154,1.933c-0.097,0.185-1.287-0.344-3.493-0.978c-1.103-0.318-2.472-0.617-4.071-0.844
					c-1.604-0.195-3.443-0.292-5.457-0.144c-2.011,0.148-4.197,0.541-6.427,1.297c-2.258,0.744-4.418,1.91-6.67,3.47
					c-1.138,0.766-2.325,1.59-3.65,2.345c-1.323,0.745-2.811,1.431-4.466,1.755c-1.649,0.314-3.367,0.321-5.029,0.05
					c-1.643-0.306-3.265-0.765-4.785-1.386c-3.073-1.196-5.815-2.648-8.537-3.647c-2.702-0.97-5.391-1.519-7.828-1.006
					c-2.445,0.484-4.647,1.806-6.701,3.086c-2.054,1.303-4.061,2.587-6.108,3.41c-2.035,0.832-4.117,1.194-5.926,0.923
					c-1.788-0.261-3.209-0.99-4.168-1.804c-0.969-0.816-1.451-1.712-1.659-2.322C207.77,114.747,207.804,114.393,207.874,114.376z"
					/>
			</g>
			<g>
				<path style="fill:#263238;" d="M286.775,158.776c-0.099,0.109-1.676-1.173-3.648-2.707c-1.97-1.539-3.598-2.755-3.516-2.878
					c0.076-0.117,1.848,0.914,3.836,2.467C285.437,157.207,286.869,158.674,286.775,158.776z"/>
			</g>
			<g>
				<path style="fill:#263238;" d="M283.384,108.212c-0.036,0.096-1.516-0.906-4.46-1.431c-1.462-0.24-3.289-0.358-5.319,0.007
					c-2.027,0.328-4.256,1.159-6.293,2.635l-0.009,0.007l-0.009,0.005c-1.915,1.157-3.981,2.406-6.159,3.721
					c-2.203,1.328-4.895,2.221-7.722,2.168c-2.292-0.008-4.473-0.842-6.245-2.004c-1.799-1.145-3.334-2.484-4.896-3.595
					c-3.111-2.242-6.445-3.414-9.296-3.896c-2.863-0.488-5.239-0.357-6.848-0.162c-1.613,0.212-2.487,0.454-2.5,0.402
					c-0.005-0.017,0.211-0.086,0.626-0.202c0.414-0.125,1.036-0.258,1.845-0.4c1.615-0.259,4.019-0.45,6.937-0.001
					c2.902,0.442,6.323,1.6,9.514,3.868c1.593,1.118,3.133,2.446,4.891,3.555c1.739,1.127,3.788,1.903,5.982,1.915
					c2.715,0.049,5.304-0.798,7.457-2.083c2.185-1.301,4.257-2.536,6.178-3.679l-0.018,0.012c2.119-1.509,4.422-2.333,6.503-2.638
					c2.085-0.342,3.949-0.184,5.43,0.099c1.486,0.296,2.6,0.74,3.331,1.086c0.367,0.17,0.632,0.337,0.815,0.437
					C283.3,108.142,283.39,108.201,283.384,108.212z"/>
			</g>
			<g>
				<path style="fill:#263238;" d="M285.382,178.719c0.007-0.056,0.73,0.106,2.034,0.03c1.292-0.083,3.192-0.498,5.172-1.739
					c1.998-1.2,3.973-3.244,5.487-5.938c1.545-2.679,2.673-5.919,3.813-9.322c2.286-6.813,3.913-13.118,4.96-17.709
					c0.526-2.295,0.915-4.161,1.186-5.451c0.127-0.597,0.232-1.087,0.317-1.484c0.077-0.339,0.127-0.515,0.145-0.512
					c0.018,0.003,0.003,0.185-0.041,0.53c-0.059,0.402-0.132,0.899-0.221,1.503c-0.21,1.302-0.545,3.182-1.025,5.493
					c-0.957,4.62-2.533,10.961-4.826,17.795c-1.142,3.407-2.293,6.676-3.892,9.398c-1.565,2.733-3.636,4.824-5.712,6.013
					c-2.06,1.234-4.03,1.605-5.353,1.627c-0.666,0.013-1.183-0.044-1.526-0.107C285.556,178.779,285.378,178.736,285.382,178.719z"
					/>
			</g>
			<g>
				<path style="fill:#455A64;" d="M202.74,132.266c0.026-0.016,0.185,0.29,0.581,0.798c0.388,0.508,1.061,1.209,2.135,1.792
					c2.076,1.202,5.94,1.845,9.947-0.019c2.007-0.87,4.022-2.196,6.15-3.67c2.129-1.463,4.43-3.088,7.188-4.168
					c1.372-0.537,2.863-0.929,4.424-0.998c1.563-0.083,3.164,0.239,4.667,0.79c3.003,1.064,5.887,2.867,9.243,2.824
					c1.649,0.047,3.281-0.238,4.833-0.701c1.556-0.452,3.055-1.031,4.506-1.661c2.91-1.232,5.681-2.593,8.526-3.375
					c1.408-0.435,2.845-0.63,4.238-0.743c1.402-0.063,2.754,0.059,4.044,0.214c2.576,0.325,4.961,0.726,7.139,0.553
					c2.178-0.146,4.089-0.767,5.654-1.507c1.56-0.763,2.788-1.643,3.707-2.45c0.921-0.81,1.537-1.541,1.953-2.036
					c0.182-0.236,0.331-0.427,0.451-0.582c0.104-0.13,0.16-0.195,0.168-0.19c0,0-0.623,1.251-2.436,2.959
					c-0.91,0.841-2.139,1.759-3.715,2.561c-1.581,0.779-3.523,1.439-5.754,1.613c-2.234,0.201-4.658-0.188-7.217-0.491
					c-1.282-0.145-2.611-0.255-3.971-0.186c-1.354,0.119-2.749,0.313-4.13,0.747c-2.786,0.778-5.535,2.136-8.457,3.383
					c-1.457,0.636-2.975,1.226-4.564,1.69c-1.583,0.473-3.27,0.772-4.986,0.723l-0.642-0.007l-0.636-0.083
					c-0.421-0.068-0.85-0.085-1.26-0.197c-0.827-0.186-1.624-0.451-2.396-0.747c-1.543-0.594-2.993-1.306-4.47-1.83
					c-1.471-0.541-2.982-0.847-4.475-0.774c-1.492,0.06-2.932,0.43-4.271,0.948c-2.693,1.041-4.977,2.627-7.118,4.078
					c-2.139,1.459-4.192,2.786-6.248,3.652c-2.04,0.889-4.094,1.253-5.863,1.112c-1.774-0.108-3.257-0.619-4.33-1.255
					c-1.085-0.626-1.751-1.369-2.118-1.905C202.862,132.591,202.74,132.266,202.74,132.266z"/>
			</g>
			<g>
				<path style="fill:#455A64;" d="M204.821,136.455c0.026-0.016,0.185,0.29,0.581,0.798c0.388,0.508,1.061,1.209,2.135,1.792
					c2.076,1.202,5.94,1.845,9.947-0.019c2.007-0.87,4.022-2.196,6.15-3.67c2.128-1.463,4.43-3.088,7.188-4.168
					c1.372-0.537,2.863-0.929,4.424-0.998c1.563-0.083,3.164,0.238,4.667,0.79c3.003,1.064,5.887,2.867,9.243,2.824
					c1.649,0.047,3.281-0.238,4.833-0.701c1.556-0.452,3.055-1.031,4.506-1.661c2.91-1.232,5.682-2.593,8.526-3.375
					c1.408-0.435,2.845-0.63,4.238-0.743c1.402-0.063,2.754,0.059,4.044,0.214c2.576,0.325,4.961,0.726,7.139,0.553
					c2.178-0.146,4.089-0.767,5.654-1.507c1.56-0.763,2.788-1.643,3.707-2.45c0.921-0.809,1.537-1.541,1.953-2.036
					c0.182-0.236,0.331-0.427,0.451-0.582c0.103-0.13,0.16-0.195,0.168-0.19c0,0-0.623,1.251-2.436,2.959
					c-0.91,0.841-2.139,1.76-3.715,2.561c-1.581,0.779-3.523,1.439-5.754,1.613c-2.234,0.201-4.658-0.188-7.217-0.491
					c-1.282-0.145-2.611-0.255-3.971-0.186c-1.354,0.119-2.749,0.313-4.13,0.747c-2.786,0.778-5.535,2.136-8.457,3.383
					c-1.456,0.636-2.975,1.226-4.564,1.69c-1.583,0.473-3.27,0.772-4.986,0.723l-0.642-0.007l-0.636-0.083
					c-0.421-0.068-0.85-0.085-1.26-0.197c-0.827-0.186-1.624-0.451-2.396-0.747c-1.543-0.594-2.993-1.306-4.47-1.83
					c-1.471-0.542-2.982-0.847-4.475-0.774c-1.492,0.06-2.932,0.43-4.271,0.948c-2.693,1.041-4.977,2.627-7.118,4.078
					c-2.139,1.459-4.192,2.786-6.248,3.652c-2.04,0.889-4.094,1.253-5.863,1.112c-1.774-0.108-3.257-0.619-4.33-1.255
					c-1.086-0.626-1.751-1.369-2.118-1.905C204.943,136.779,204.821,136.455,204.821,136.455z"/>
			</g>
		</g>
		<g>
			<path style="fill:#263238;" d="M210.077,444.552c0.125-0.071,3.771,6.073,8.144,13.723c4.374,7.652,7.818,13.911,7.693,13.982
				c-0.125,0.071-3.771-6.072-8.145-13.724C213.396,450.883,209.952,444.623,210.077,444.552z"/>
		</g>
		<g>
			<path style="fill:#263238;" d="M222.126,453.594c0.059-0.033,0.659,0.915,1.515,2.512c0.857,1.595,1.955,3.848,3.013,6.403
				c1.057,2.557,1.871,4.927,2.392,6.661c0.522,1.735,0.767,2.829,0.702,2.848c-0.073,0.022-0.443-1.034-1.052-2.732
				c-0.608-1.699-1.473-4.035-2.523-6.578c-1.053-2.541-2.092-4.805-2.861-6.437C222.543,454.639,222.059,453.63,222.126,453.594z"
				/>
		</g>
		<g>
			<g>
				<g>
					<g>
						<g>
							<g>
								<g>
									<g>
										<g>
											<g>
												<g>
													<path style="fill:#FF725E;" d="M214.987,435.893l-6.891,36.303l43.194,8.516c0.588-4.36-20.072-17.42-20.072-17.42
														l5.329-23.085L214.987,435.893z"/>
												</g>
											</g>
										</g>
									</g>
								</g>
							</g>
						</g>
					</g>
				</g>
				<g style="opacity:0.6;">
					<g>
						<g>
							<g>
								<g>
									<g>
										<g>
											<g>
												<g>
													<g>
														<path style="fill:#FFFFFF;" d="M218.243,458.703c-0.882,0.074-1.652,0.942-1.63,1.863
															c0.022,0.92,0.851,1.73,1.735,1.672c0.883-0.058,1.837-1.071,1.716-1.982c-0.121-0.911-1.146-1.805-1.993-1.529"/>
													</g>
												</g>
											</g>
										</g>
									</g>
								</g>
							</g>
						</g>
					</g>
				</g>
				<g style="opacity:0.6;">
					<g>
						<g>
							<g>
								<g>
									<g>
										<g>
											<g>
												<g>
													<path style="fill:#FFFFFF;" d="M208.096,472.196l0.832-3.633l41.103,9.523c0,0,1.753,1.253,1.259,2.626
														L208.096,472.196z"/>
												</g>
											</g>
										</g>
									</g>
								</g>
							</g>
						</g>
					</g>
				</g>
				<g>
					<g>
						<g>
							<g>
								<g>
									<g>
										<g>
											<g>
												<g>
													<g>
														<path style="fill:#263238;" d="M231.962,463.2c-0.05,0.219-1.124,0.111-2.3,0.615
															c-1.188,0.472-1.909,1.321-2.086,1.195c-0.186-0.081,0.385-1.336,1.819-1.921
															C230.824,462.492,232.048,463.007,231.962,463.2z"/>
													</g>
												</g>
											</g>
										</g>
									</g>
								</g>
							</g>
						</g>
					</g>
				</g>
				<g>
					<g>
						<g>
							<g>
								<g>
									<g>
										<g>
											<g>
												<g>
													<g>
														<path style="fill:#263238;" d="M236.111,466.051c0.007,0.223-0.98,0.417-1.878,1.208
															c-0.92,0.763-1.297,1.736-1.505,1.685c-0.205-0.005-0.099-1.324,1.035-2.285
															C234.889,465.687,236.148,465.839,236.111,466.051z"/>
													</g>
												</g>
											</g>
										</g>
									</g>
								</g>
							</g>
						</g>
					</g>
				</g>
				<g>
					<g>
						<g>
							<g>
								<g>
									<g>
										<g>
											<g>
												<g>
													<g>
														<path style="fill:#263238;" d="M237.581,472.222c-0.201,0.009-0.28-1.15,0.497-2.249
															c0.77-1.106,1.857-1.386,1.91-1.185c0.084,0.205-0.683,0.726-1.307,1.639
															C238.036,471.325,237.794,472.242,237.581,472.222z"/>
													</g>
												</g>
											</g>
										</g>
									</g>
								</g>
							</g>
						</g>
					</g>
				</g>
				<g>
					<g>
						<g>
							<g>
								<g>
									<g>
										<g>
											<g>
												<g>
													<g>
														<path style="fill:#263238;" d="M232.619,457.807c-0.128,0.183-1.036-0.311-2.245-0.462
															c-1.206-0.176-2.215,0.059-2.288-0.152c-0.091-0.183,0.974-0.82,2.395-0.622
															C231.903,456.758,232.756,457.654,232.619,457.807z"/>
													</g>
												</g>
											</g>
										</g>
									</g>
								</g>
							</g>
						</g>
					</g>
				</g>
				<g>
					<g>
						<g>
							<g>
								<g>
									<g>
										<g>
											<g>
												<g>
													<g>
														<path style="fill:#263238;" d="M232.634,452.25c-0.016,0.091-0.876,0.063-2.161-0.438
															c-0.639-0.251-1.376-0.631-2.122-1.173c-0.372-0.271-0.746-0.582-1.108-0.934c-0.173-0.173-0.383-0.354-0.549-0.66
															c-0.189-0.276-0.208-0.887,0.132-1.191c0.289-0.303,0.709-0.376,1.022-0.322c0.32,0.052,0.565,0.17,0.788,0.277
															c0.458,0.217,0.876,0.472,1.251,0.747c0.749,0.555,1.323,1.183,1.728,1.761c0.813,1.167,0.995,2.057,0.914,2.086
															c-0.11,0.054-0.463-0.732-1.327-1.733c-0.431-0.498-1.001-1.038-1.708-1.516c-0.355-0.237-0.744-0.457-1.164-0.645
															c-0.433-0.216-0.822-0.296-0.98-0.106c-0.058,0.073-0.07,0.104-0.002,0.262c0.074,0.148,0.234,0.311,0.405,0.483
															c0.331,0.336,0.672,0.638,1.01,0.908c0.677,0.539,1.346,0.948,1.928,1.25
															C231.858,451.91,232.66,452.132,232.634,452.25z"/>
													</g>
												</g>
											</g>
										</g>
									</g>
								</g>
							</g>
						</g>
					</g>
				</g>
				<g>
					<g>
						<g>
							<g>
								<g>
									<g>
										<g>
											<g>
												<g>
													<g>
														<path style="fill:#263238;" d="M232.297,452.512c-0.081,0.019-0.346-0.853-0.145-2.295
															c0.102-0.715,0.339-1.559,0.777-2.416c0.221-0.427,0.492-0.855,0.819-1.263c0.34-0.396,0.765-0.932,1.602-0.869
															c0.431,0.068,0.718,0.486,0.781,0.808c0.083,0.334,0.061,0.601,0.061,0.872c-0.023,0.543-0.134,1.057-0.295,1.522
															c-0.323,0.934-0.855,1.659-1.379,2.153c-1.072,1.003-2.004,1.093-2.007,1.014c-0.049-0.125,0.769-0.405,1.634-1.401
															c0.426-0.491,0.852-1.166,1.098-1.989c0.124-0.41,0.204-0.854,0.215-1.314c0.026-0.493-0.071-0.914-0.252-0.898
															c-0.214-0.046-0.649,0.243-0.901,0.591c-0.3,0.361-0.558,0.74-0.775,1.12c-0.43,0.762-0.7,1.519-0.858,2.172
															C232.354,451.632,232.419,452.501,232.297,452.512z"/>
													</g>
												</g>
											</g>
										</g>
									</g>
								</g>
							</g>
						</g>
					</g>
				</g>
			</g>
		</g>
		<g>
			<g>
				<g>
					<g>
						<g>
							<g>
								<g>
									<g>
										<g>
											<g>
												<g>
													<path style="fill:#FF725E;" d="M150.95,412.161l-27.566,24.607l29.085,33.049c3.12-3.102-5.32-26.039-5.32-26.039
														l18.28-15.071L150.95,412.161z"/>
												</g>
											</g>
										</g>
									</g>
								</g>
							</g>
						</g>
					</g>
				</g>
				<g style="opacity:0.6;">
					<g>
						<g>
							<g>
								<g>
									<g>
										<g>
											<g>
												<g>
													<g>
														<path style="fill:#FFFFFF;" d="M139.648,432.24c-0.745-0.478-1.884-0.258-2.427,0.486
															c-0.543,0.744-0.378,1.891,0.358,2.383c0.736,0.492,2.109,0.268,2.568-0.528c0.459-0.796,0.19-2.13-0.651-2.426"/>
													</g>
												</g>
											</g>
										</g>
									</g>
								</g>
							</g>
						</g>
					</g>
				</g>
				<g style="opacity:0.6;">
					<g>
						<g>
							<g>
								<g>
									<g>
										<g>
											<g>
												<g>
													<path style="fill:#FFFFFF;" d="M123.384,436.768l2.871-2.376l26.813,32.576c0,0,0.628,2.061-0.599,2.85
														L123.384,436.768z"/>
												</g>
											</g>
										</g>
									</g>
								</g>
							</g>
						</g>
					</g>
				</g>
				<g>
					<g>
						<g>
							<g>
								<g>
									<g>
										<g>
											<g>
												<g>
													<g>
														<path style="fill:#263238;" d="M147.795,444.159c-0.173,0.143-0.959-0.596-2.199-0.912
															c-1.23-0.349-2.318-0.114-2.382-0.322c-0.098-0.178,1.119-0.826,2.612-0.417
															C147.322,442.905,147.981,444.058,147.795,444.159z"/>
													</g>
												</g>
											</g>
										</g>
									</g>
								</g>
							</g>
						</g>
					</g>
				</g>
				<g>
					<g>
						<g>
							<g>
								<g>
									<g>
										<g>
											<g>
												<g>
													<g>
														<path style="fill:#263238;" d="M149.352,448.947c-0.13,0.181-1.032-0.265-2.225-0.184
															c-1.194,0.046-2.085,0.587-2.22,0.42c-0.16-0.128,0.727-1.111,2.212-1.183
															C148.603,447.914,149.509,448.801,149.352,448.947z"/>
													</g>
												</g>
											</g>
										</g>
									</g>
								</g>
							</g>
						</g>
					</g>
				</g>
				<g>
					<g>
						<g>
							<g>
								<g>
									<g>
										<g>
											<g>
												<g>
													<g>
														<path style="fill:#263238;" d="M146.761,454.737c-0.165-0.115,0.478-1.082,1.764-1.482
															c1.284-0.409,2.317,0.031,2.237,0.223c-0.058,0.214-0.984,0.16-2.035,0.504
															C147.668,454.302,146.918,454.883,146.761,454.737z"/>
													</g>
												</g>
											</g>
										</g>
									</g>
								</g>
							</g>
						</g>
					</g>
				</g>
				<g>
					<g>
						<g>
							<g>
								<g>
									<g>
										<g>
											<g>
												<g>
													<g>
														<path style="fill:#263238;" d="M151.599,440.28c-0.213,0.068-0.633-0.878-1.5-1.733
															c-0.849-0.873-1.793-1.301-1.723-1.513c0.039-0.201,1.272-0.058,2.279,0.964
															C151.67,439.012,151.801,440.243,151.599,440.28z"/>
													</g>
												</g>
											</g>
										</g>
									</g>
								</g>
							</g>
						</g>
					</g>
				</g>
				<g>
					<g>
						<g>
							<g>
								<g>
									<g>
										<g>
											<g>
												<g>
													<g>
														<path style="fill:#263238;" d="M154.993,435.881c-0.068,0.063-0.733-0.483-1.448-1.663
															c-0.355-0.588-0.708-1.339-0.969-2.222c-0.13-0.442-0.238-0.916-0.311-1.415c-0.032-0.242-0.088-0.514-0.034-0.858
															c0.018-0.334,0.375-0.83,0.83-0.865c0.414-0.065,0.791,0.133,1.007,0.367c0.223,0.236,0.345,0.479,0.457,0.7
															c0.231,0.45,0.408,0.908,0.538,1.354c0.256,0.896,0.329,1.744,0.299,2.449c-0.065,1.421-0.463,2.238-0.544,2.212
															c-0.12-0.024,0.078-0.863,0.003-2.183c-0.039-0.658-0.162-1.433-0.432-2.243c-0.138-0.404-0.312-0.815-0.531-1.22
															c-0.212-0.435-0.472-0.735-0.713-0.681c-0.091,0.022-0.119,0.039-0.161,0.207c-0.032,0.163-0.004,0.39,0.027,0.629
															c0.058,0.468,0.145,0.915,0.249,1.335c0.209,0.84,0.491,1.571,0.769,2.165
															C154.584,435.139,155.087,435.803,154.993,435.881z"/>
													</g>
												</g>
											</g>
										</g>
									</g>
								</g>
							</g>
						</g>
					</g>
				</g>
				<g>
					<g>
						<g>
							<g>
								<g>
									<g>
										<g>
											<g>
												<g>
													<g>
														<path style="fill:#263238;" d="M154.567,435.884c-0.076-0.034,0.245-0.887,1.282-1.909
															c0.516-0.505,1.218-1.03,2.087-1.444c0.435-0.204,0.911-0.379,1.418-0.504c0.511-0.107,1.174-0.274,1.8,0.286
															c0.301,0.316,0.273,0.823,0.128,1.116c-0.137,0.315-0.318,0.514-0.483,0.729c-0.349,0.416-0.75,0.758-1.161,1.028
															c-0.825,0.544-1.688,0.795-2.404,0.868c-1.461,0.143-2.255-0.353-2.209-0.417c0.037-0.129,0.857,0.147,2.149-0.117
															c0.637-0.13,1.386-0.407,2.082-0.909c0.348-0.25,0.682-0.553,0.97-0.911c0.321-0.375,0.5-0.768,0.347-0.866
															c-0.142-0.167-0.663-0.202-1.074-0.08c-0.458,0.103-0.893,0.248-1.296,0.417c-0.805,0.343-1.48,0.779-2.003,1.201
															C155.148,435.22,154.67,435.949,154.567,435.884z"/>
													</g>
												</g>
											</g>
										</g>
									</g>
								</g>
							</g>
						</g>
					</g>
				</g>
			</g>
		</g>
		<g style="opacity:0.3;">
			<path d="M169.095,313.867"/>
		</g>
		<g>
			<path style="fill:#263238;" d="M259.702,274.7c0,0-19.277,91.932-27.125,103.704c-7.848,11.772-81.016,69.543-81.016,69.543
				l-20.684-20.736c0,0,22.891-25.263,34.009-33.438c8.122-5.972,23.434-20.33,31.097-27.635c2.979-2.84,4.821-6.662,5.182-10.762
				c0.989-11.245,2.901-34.203,2.713-41.509c-0.253-9.81-6.659-19.604-4.297-33.338c2.363-13.734,16.666-26.108,16.666-26.108
				L259.702,274.7z"/>
			<path style="fill:#263238;" d="M247.62,291.093c0,0.981,10.137,66.71,8.829,77.501c-1.308,10.791-22.237,94.833-22.237,94.833
				l-25.205-5.015c0,0,2.419-27.648,4.277-43.055c1.722-14.285,1.796-37.443,1.962-38.096c0.611-2.398,5.232-31.883,5.232-31.883
				l-12.426-56.9L247.62,291.093z"/>
			<g>
				<path style="fill:#455A64;" d="M253.884,301.327c0.009,0.002-0.015,0.13-0.071,0.376c-0.064,0.271-0.15,0.632-0.259,1.091
					c-0.246,0.985-0.596,2.389-1.043,4.183c-0.935,3.655-2.276,8.895-3.93,15.357c-1.651,6.489-3.766,14.167-5.641,22.817
					c-0.989,4.313-2.046,8.838-3.232,13.508c-1.197,4.666-2.482,9.492-4.164,14.332c-0.403,1.215-0.896,2.396-1.388,3.566
					c-0.281,0.573-0.532,1.155-0.835,1.715l-0.513,0.814c-0.166,0.276-0.338,0.544-0.564,0.766
					c-0.826,0.964-1.712,1.829-2.594,2.682c-0.869,0.871-1.781,1.672-2.658,2.501c-3.552,3.259-7.037,6.334-10.379,9.236
					c-6.679,5.81-12.759,10.965-17.876,15.279c-5.121,4.276-9.273,7.742-12.169,10.16c-1.43,1.171-2.55,2.087-3.335,2.73
					c-0.369,0.294-0.659,0.525-0.877,0.699c-0.199,0.155-0.304,0.231-0.31,0.224c-0.006-0.007,0.088-0.097,0.276-0.265
					c0.209-0.183,0.488-0.428,0.843-0.738c0.771-0.661,1.869-1.602,3.272-2.805c2.87-2.448,6.985-5.957,12.061-10.286
					c5.086-4.35,11.14-9.533,17.799-15.36c3.331-2.911,6.807-5.992,10.348-9.249c0.872-0.827,1.785-1.631,2.645-2.495
					c0.878-0.851,1.756-1.713,2.55-2.64c0.222-0.216,0.384-0.473,0.539-0.734l0.487-0.772c0.292-0.54,0.54-1.115,0.814-1.674
					c0.484-1.152,0.972-2.318,1.372-3.527c1.671-4.808,2.959-9.627,4.16-14.284c1.191-4.662,2.257-9.181,3.259-13.49
					c1.901-8.645,4.057-16.331,5.752-22.801c1.721-6.445,3.117-11.671,4.091-15.317c0.488-1.783,0.87-3.178,1.138-4.158
					c0.13-0.454,0.232-0.81,0.309-1.078C253.834,301.447,253.876,301.324,253.884,301.327z"/>
			</g>
		</g>
		<g>
			<path style="fill:#E0E0E0;" d="M281.15,181.274c0.113,8.163,2.933,16.009,4.695,23.981c1.761,7.972,2.358,16.762-1.631,23.886
				c-2.425,4.331-17.061,18.333-19.75,22.504l-4.761,23.056l-36.11-13.073l20.763-73.281L281.15,181.274z"/>
			<path style="fill:#FF725E;" d="M252.753,189.415c0,0-4.525,52.656-0.571,60.924c3.954,8.268,11.148,8.297,19.776,7.578
				c8.627-0.719,33.591-21.857,33.591-21.857l-6.242-17.835l-20.418,8.917c0,0,3.46-37.954,3.46-41.205
				c0-7.663-6.154-17.971-13.343-16.174C261.816,171.563,253.57,176.46,252.753,189.415z"/>
			<path style="fill:#FF725E;" d="M269.625,167.595c0,0-22.122,0.107-28.604,6.28c-6.482,6.173-28.969,49.975-36.007,61.858
				c-8.261,13.947-40.097,36.855-44.75,46.282c-8.05,16.311,10.38,32.803,10.38,32.803s-5.651-22.223,14.411-18.827
				c20.062,3.395,21.297,4.938,26.852,0.926c5.556-4.012,42.593-57.717,42.902-59.569c0.309-1.852,16.976-62.038,16.976-62.038
				L269.625,167.595z"/>
			<g>
				<path style="fill:#263238;" d="M250.719,243.935c-0.018,0.002-0.051-0.163-0.098-0.48c-0.049-0.378-0.109-0.837-0.181-1.39
					c-0.127-1.21-0.257-2.968-0.331-5.142c-0.162-4.349-0.061-10.358,0.209-16.984c0.279-6.628,0.65-12.619,0.917-16.954
					c0.135-2.106,0.246-3.84,0.328-5.133c0.042-0.556,0.077-1.016,0.106-1.395c0.03-0.319,0.054-0.486,0.072-0.485
					c0.018,0.001,0.029,0.169,0.033,0.489c-0.002,0.38-0.005,0.842-0.008,1.4c-0.02,1.215-0.075,2.973-0.163,5.144
					c-0.199,4.415-0.467,10.372-0.764,16.957c-0.27,6.619-0.429,12.616-0.362,16.953c0.026,2.169,0.1,3.923,0.165,5.134
					c0.033,0.556,0.061,1.016,0.083,1.395C250.738,243.764,250.737,243.933,250.719,243.935z"/>
			</g>
			<g>
				<path style="fill:#263238;" d="M248.412,232.677c0.004,0.008-0.071,0.054-0.221,0.136c-0.178,0.093-0.398,0.209-0.67,0.351
					c-0.631,0.317-1.498,0.753-2.597,1.304c-1.134,0.553-2.516,1.241-4.091,2.096c-1.579,0.847-3.403,1.763-5.351,2.899
					c-0.982,0.556-2.01,1.137-3.081,1.743c-1.069,0.609-2.152,1.293-3.29,1.973c-2.287,1.342-4.651,2.904-7.156,4.518
					c-4.956,3.312-10.286,7.132-15.662,11.425c-5.354,4.324-10.236,8.705-14.539,12.83c-2.117,2.098-4.153,4.069-5.957,6.013
					c-0.909,0.965-1.811,1.874-2.636,2.787c-0.822,0.915-1.612,1.793-2.366,2.632c-1.53,1.657-2.818,3.241-3.985,4.6
					c-1.175,1.354-2.145,2.554-2.929,3.542c-0.776,0.954-1.389,1.707-1.834,2.254c-0.198,0.235-0.358,0.425-0.488,0.578
					c-0.112,0.129-0.173,0.192-0.18,0.186c-0.007-0.005,0.04-0.079,0.138-0.219c0.119-0.162,0.265-0.363,0.447-0.61
					c0.427-0.562,1.014-1.336,1.758-2.316c0.761-1.008,1.709-2.229,2.864-3.602c1.148-1.379,2.418-2.981,3.933-4.657
					c0.748-0.848,1.531-1.735,2.346-2.659c0.819-0.922,1.715-1.84,2.62-2.814c1.794-1.961,3.823-3.948,5.936-6.06
					c4.295-4.154,9.18-8.557,14.547-12.892c5.389-4.304,10.742-8.122,15.724-11.419c2.519-1.607,4.896-3.159,7.198-4.488
					c1.145-0.673,2.236-1.35,3.312-1.951c1.078-0.596,2.114-1.169,3.103-1.717c1.964-1.118,3.803-2.012,5.397-2.836
					c1.59-0.831,2.986-1.494,4.135-2.019c1.118-0.515,2-0.922,2.642-1.217c0.281-0.123,0.508-0.224,0.692-0.304
					C248.326,232.699,248.409,232.669,248.412,232.677z"/>
			</g>
			<g>
				<path style="fill:#263238;" d="M247.587,231.297c0.01,0.035-0.342,0.17-0.985,0.386c-0.754,0.245-1.664,0.542-2.729,0.888
					c-2.306,0.742-5.485,1.783-8.969,3.012c-3.485,1.231-6.613,2.416-8.875,3.285c-1.047,0.399-1.941,0.739-2.682,1.021
					c-0.636,0.236-0.995,0.35-1.009,0.317c-0.014-0.033,0.318-0.211,0.93-0.504c0.612-0.295,1.508-0.697,2.623-1.176
					c2.23-0.958,5.346-2.201,8.84-3.435c3.493-1.232,6.699-2.22,9.036-2.873c1.169-0.327,2.119-0.576,2.78-0.731
					C247.207,231.332,247.577,231.262,247.587,231.297z"/>
			</g>
			<g>
				<path style="fill:#263238;" d="M245.924,222.936c-0.014,0.065-0.8-0.03-2.044-0.327c-1.243-0.296-2.938-0.814-4.738-1.571
					c-1.8-0.76-3.355-1.609-4.435-2.292c-1.081-0.682-1.699-1.178-1.662-1.233c0.086-0.134,2.739,1.558,6.3,3.045
					C242.895,222.064,245.96,222.78,245.924,222.936z"/>
			</g>
			<g>
				<path style="fill:#263238;" d="M282.052,184.489c-0.036,0.007-0.162-0.545-0.374-1.542c-0.22-0.994-0.503-2.444-1.061-4.165
					c-0.563-1.706-1.438-3.727-3.07-5.45c-0.808-0.855-1.805-1.621-2.978-2.115c-1.173-0.492-2.503-0.711-3.865-0.688
					c-2.733,0.064-5.304,0.855-7.434,1.897c-2.144,1.045-3.875,2.363-5.172,3.616c-2.611,2.525-3.551,4.646-3.658,4.571
					c-0.016-0.008,0.038-0.139,0.157-0.382c0.12-0.241,0.291-0.602,0.565-1.035c0.525-0.879,1.379-2.11,2.678-3.417
					c1.289-1.31,3.033-2.689,5.218-3.783c2.175-1.091,4.797-1.919,7.64-1.988c1.417-0.024,2.824,0.209,4.071,0.74
					c1.248,0.534,2.294,1.354,3.129,2.256c1.684,1.819,2.544,3.921,3.072,5.667c0.522,1.765,0.751,3.231,0.91,4.239
					C282.029,183.921,282.087,184.483,282.052,184.489z"/>
			</g>
			<g style="opacity:0.3;">
				<path d="M183.586,280.088c12.465-13.308,26.787-24.704,41.901-34.904c-18.544,8.238-35.253,20.22-50.275,33.861
					c-4.015,3.646-8.078,7.671-9.569,12.885c-1.967,6.88,2.126,16.336,5.001,22.888c0,0-4.052-13.63-0.543-18.636
					C173.799,290.909,183.586,280.088,183.586,280.088z"/>
			</g>
			<g style="opacity:0.3;">
				<path d="M251.129,202.024c-5.528,13.159-6.306,28.255-2.16,41.912l0.433,1.745c0.04,0.488,1.277-2.234,1.317-1.746
					C249.872,231.539,251.054,216.344,251.129,202.024z"/>
			</g>
			<g>
				<path style="fill:#263238;" d="M270.49,238.304c-0.059-0.022,0.141-0.761,0.654-1.883c0.51-1.121,1.367-2.61,2.556-4.077
					c1.193-1.464,2.475-2.608,3.468-3.337c0.993-0.732,1.675-1.079,1.709-1.025c0.098,0.134-2.452,1.806-4.773,4.691
					C271.757,235.534,270.642,238.372,270.49,238.304z"/>
			</g>
		</g>
		<g>
			<path style="fill:#263238;" d="M208.346,299.905c-0.003,0.018-0.19,0.005-0.542-0.036c-0.41-0.054-0.919-0.122-1.539-0.204
				c-1.407-0.211-3.318-0.497-5.645-0.846c-2.403-0.379-5.232-0.826-8.361-1.32c-1.575-0.254-3.225-0.521-4.934-0.797
				c-1.713-0.273-3.475-0.599-5.29-0.723c-1.809-0.125-3.603-0.02-5.198,0.542c-1.601,0.545-2.928,1.578-3.909,2.784
				c-1.984,2.448-2.652,5.338-2.873,7.694c-0.232,2.382-0.14,4.336,0.064,5.655c0.186,1.333,0.582,1.976,0.544,1.997
				c-0.008,0.005-0.037-0.032-0.088-0.108c-0.047-0.078-0.133-0.19-0.199-0.357c-0.163-0.322-0.317-0.832-0.457-1.496
				c-0.269-1.332-0.42-3.304-0.232-5.724c0.179-2.391,0.817-5.39,2.867-7.963c1.012-1.269,2.42-2.379,4.112-2.963
				c1.686-0.601,3.554-0.708,5.403-0.581c1.856,0.128,3.63,0.46,5.338,0.739c1.708,0.286,3.356,0.563,4.93,0.827
				c3.122,0.535,5.945,1.019,8.343,1.43c2.316,0.416,4.217,0.757,5.618,1.009c0.614,0.121,1.117,0.22,1.523,0.3
				C208.168,299.84,208.349,299.888,208.346,299.905z"/>
		</g>
		<g>
			<g>
				<path style="fill:#455A64;" d="M236.14,160.626c-8.976,1.588-17.398,5.516-26.349,7.24
					c-19.822,3.819-41.475-4.343-53.845-20.296c0.596,4.474,1.945,8.847,3.973,12.879c-5.729-0.028-11.426-2.11-15.824-5.782
					c1.039,4.124,4.166,7.389,7.486,10.046c10.753,8.607,23.021,15.254,36.728,16.607c13.707,1.354,32.181-1.538,46.313-6.698
					l26.763-7.332C255.476,160.352,245.116,159.038,236.14,160.626z"/>
				<g style="opacity:0.2;">
					<path d="M236.14,160.626c-8.976,1.588-17.398,5.516-26.349,7.24c-19.822,3.819-41.475-4.343-53.845-20.296
						c0.596,4.474,1.945,8.847,3.973,12.879c-5.729-0.028-11.426-2.11-15.824-5.782c1.039,4.124,4.166,7.389,7.486,10.046
						c10.753,8.607,23.021,15.254,36.728,16.607c13.707,1.354,32.181-1.538,46.313-6.698l26.763-7.332
						C255.476,160.352,245.116,159.038,236.14,160.626z"/>
				</g>
			</g>
			<path style="fill:#455A64;" d="M284.564,172.363c-7.942-9.18-16.85-15.365-30.124-15.669
				c-15.393-0.352-32.892,12.59-46.841,19.604c-10.415,5.237-21.194,10.3-31.63,15.531c-6.383,3.2-13.287,5.257-20.395,5.933
				c-2.262,0.215-4.702,0.375-7.189,0.418c-9.949,0.173-20.417-1.73-20.417-1.73c-4.847-1.278-9.917-3.402-14.764-4.679
				c3.7,5.386,6.213,6.896,11.563,10.649c-4.561,0.204-10.579,1.439-15.139,1.644c19.202,6.587,43.553,15.315,63.036,9.617
				c20.712-6.057,35.423-24.699,55.292-33.12c14.509-6.15,32.075-15.37,46.729-9.573c3.719,1.471,6.505,6.799,7.711,14.968
				C282.395,185.957,287.594,175.866,284.564,172.363z"/>
			<g>
				<path style="fill:#263238;" d="M258.464,157.927c0.004,0.047-0.72,0.125-2.011,0.348c-1.292,0.217-3.142,0.656-5.343,1.447
					c-2.204,0.784-4.728,1.989-7.378,3.585c-2.651,1.598-5.412,3.603-8.186,5.862c-2.771,2.269-5.328,4.536-7.692,6.558
					c-2.361,2.026-4.533,3.805-6.427,5.207c-1.892,1.405-3.486,2.457-4.621,3.127c-0.559,0.348-1.016,0.581-1.319,0.749
					c-0.306,0.164-0.47,0.242-0.479,0.226c-0.021-0.036,0.595-0.423,1.69-1.146c1.097-0.72,2.651-1.813,4.506-3.249
					c1.858-1.433,3.996-3.234,6.337-5.277c2.344-2.039,4.894-4.32,7.677-6.599c2.788-2.271,5.58-4.28,8.269-5.87
					c2.689-1.589,5.259-2.773,7.502-3.521c2.241-0.755,4.123-1.143,5.434-1.3c0.651-0.106,1.167-0.11,1.512-0.143
					C258.28,157.912,258.462,157.909,258.464,157.927z"/>
			</g>
			<g>
				<path style="fill:#263238;" d="M223.579,174.685c0.076,0.122-6.055,4.052-13.692,8.776c-7.64,4.726-13.892,8.456-13.968,8.334
					c-0.076-0.122,6.054-4.051,13.694-8.777C217.25,178.294,223.503,174.563,223.579,174.685z"/>
			</g>
		</g>
		<g>
			<g>
				<path style="fill:#FF725E;" d="M253.382,68.855c0,0,68.242,4.549,87.874,18.364c19.632,13.815,46.461,35.53,46.461,35.53
					s33.819,39.937,36.727,62.477c2.908,22.54,0.305,85.037,0.305,85.037s-15.996-22.456-37.082-27.224
					c0,0-37.809-65.117-67.62-83.295c0,0-2.326-14.368-23.596-42.02c-9.014-11.718-26.501-20.124-26.501-20.124
					S262.834,69.582,253.382,68.855z"/>
				<g>
					<path style="fill:#263238;" d="M390.305,125.898c0.004,0.018-0.256,0.105-0.756,0.255c-0.547,0.158-1.276,0.369-2.19,0.633
						c-0.954,0.262-2.119,0.589-3.452,1.036c-1.335,0.44-2.873,0.882-4.528,1.507c-1.666,0.592-3.491,1.239-5.415,2.031
						c-1.944,0.739-3.975,1.641-6.121,2.566c-4.266,1.914-8.888,4.168-13.66,6.691c-9.529,5.085-17.938,10.092-24.095,13.593
						c-3.076,1.755-5.571,3.166-7.314,4.108c-0.838,0.451-1.507,0.81-2.009,1.08c-0.462,0.242-0.709,0.362-0.718,0.346
						c-0.009-0.016,0.221-0.166,0.666-0.437c0.49-0.291,1.142-0.679,1.96-1.165c1.754-1.031,4.211-2.476,7.229-4.25
						c6.108-3.581,14.49-8.64,24.037-13.735c4.781-2.528,9.422-4.774,13.71-6.67c2.158-0.915,4.201-1.805,6.158-2.529
						c1.936-0.776,3.773-1.406,5.452-1.977c1.667-0.604,3.218-1.023,4.564-1.437c1.344-0.422,2.52-0.721,3.484-0.953
						c0.925-0.225,1.664-0.404,2.218-0.539C390.032,125.934,390.301,125.88,390.305,125.898z"/>
				</g>
				<g style="opacity:0.3;">
					<path d="M413.92,159.508c0,0,3.077,16.511,0.316,32.157c-2.761,15.646-26.57,51.373-26.57,51.373s6.906,1.391,15.302,6.679
						c12.417,7.82,21.78,20.546,21.78,20.546l1.051-33.655v-22.171c0,0-0.019-8.934-0.455-17.566
						c-0.359-7.114-1.086-13.977-1.565-15.872C422.507,175.971,414.534,159.056,413.92,159.508z"/>
				</g>
				<g>
					<path style="fill:#263238;" d="M366.085,105.325c-0.005,0.008-0.083-0.033-0.231-0.116c-0.174-0.101-0.389-0.225-0.654-0.378
						c-0.612-0.35-1.453-0.832-2.519-1.443c-2.201-1.227-5.408-2.971-9.502-4.85c-4.092-1.871-9.055-3.947-14.775-5.584
						c-1.421-0.439-2.907-0.774-4.417-1.149c-0.759-0.16-1.536-0.252-2.315-0.383c-0.779-0.129-1.566-0.26-2.376-0.283
						c-1.612-0.101-3.249-0.245-4.923-0.207c-0.835-0.003-1.677-0.006-2.524-0.009c-0.847,0.015-1.7,0.063-2.558,0.094
						c-6.866,0.28-13.385,1.002-19.297,1.748c-5.913,0.754-11.215,1.604-15.664,2.33c-4.449,0.73-8.038,1.39-10.521,1.835
						c-1.209,0.219-2.164,0.392-2.858,0.517c-0.302,0.051-0.547,0.092-0.745,0.126c-0.168,0.026-0.256,0.035-0.257,0.026
						c-0.002-0.009,0.082-0.035,0.246-0.078c0.195-0.047,0.437-0.105,0.735-0.176c0.69-0.149,1.638-0.354,2.84-0.613
						c2.471-0.506,6.052-1.222,10.497-1.999c4.445-0.773,9.746-1.662,15.664-2.443c5.917-0.774,12.446-1.512,19.339-1.793
						c0.861-0.03,1.717-0.078,2.568-0.093c0.852,0.004,1.698,0.007,2.539,0.011c1.681-0.036,3.336,0.111,4.962,0.217
						c0.815,0.025,1.615,0.16,2.407,0.293c0.79,0.135,1.583,0.233,2.349,0.397c1.519,0.382,3.013,0.726,4.441,1.174
						c5.746,1.672,10.712,3.791,14.798,5.711c4.086,1.927,7.274,3.724,9.447,5.008c1.088,0.641,1.915,1.167,2.473,1.529
						c0.254,0.172,0.46,0.31,0.627,0.423C366.021,105.262,366.089,105.318,366.085,105.325z"/>
				</g>
				<g>
					<path style="fill:#263238;" d="M413.92,159.508c0.009-0.002,0.032,0.074,0.067,0.225c0.037,0.182,0.082,0.403,0.138,0.672
						c0.11,0.592,0.263,1.468,0.423,2.602c0.319,2.266,0.718,5.559,0.913,9.651c0.182,4.088,0.247,8.983-0.342,14.378
						c-0.125,1.35-0.333,2.725-0.553,4.128c-0.078,0.706-0.303,1.399-0.453,2.11c-0.188,0.702-0.294,1.438-0.554,2.13
						c-0.89,2.82-1.99,5.676-3.284,8.521c-5.179,11.393-11.087,21.066-15.359,28.034c-2.152,3.479-3.963,6.25-5.223,8.159
						c-0.621,0.918-1.114,1.646-1.476,2.181c-0.16,0.224-0.29,0.407-0.398,0.558c-0.092,0.124-0.143,0.185-0.151,0.18
						c-0.016-0.01,0.146-0.282,0.461-0.795c0.342-0.548,0.807-1.293,1.394-2.234c1.207-1.942,2.969-4.741,5.079-8.242
						c4.188-7.009,10.04-16.707,15.197-28.054c1.289-2.833,2.384-5.669,3.271-8.457c0.261-0.687,0.364-1.406,0.551-2.097
						c0.15-0.701,0.374-1.375,0.454-2.079c0.224-1.392,0.435-2.756,0.566-4.098c0.612-5.358,0.586-10.233,0.451-14.31
						c-0.147-4.08-0.49-7.372-0.746-9.641c-0.137-1.099-0.245-1.97-0.325-2.611c-0.035-0.272-0.063-0.495-0.086-0.679
						C413.917,159.589,413.911,159.51,413.92,159.508z"/>
				</g>
			</g>
			<g>
				<path style="fill:#263238;" d="M376.414,196.337c-0.034,0.012-0.234-0.434-0.566-1.249c-0.326-0.817-0.818-1.991-1.452-3.428
					c-1.263-2.876-3.185-6.773-5.706-10.848c-2.529-4.071-5.164-7.527-7.177-9.938c-1.005-1.207-1.837-2.17-2.424-2.825
					c-0.582-0.66-0.892-1.037-0.866-1.062c0.026-0.025,0.385,0.305,1.014,0.923c0.633,0.614,1.51,1.543,2.556,2.725
					c2.094,2.36,4.795,5.805,7.34,9.903c2.537,4.101,4.42,8.053,5.602,10.978c0.593,1.462,1.035,2.661,1.303,3.501
					C376.313,195.856,376.448,196.325,376.414,196.337z"/>
			</g>
			<g>
				<path style="fill:#263238;" d="M317.167,129.402c-0.078,0.015-0.302-0.898-0.726-2.351c-0.423-1.453-1.075-3.438-1.98-5.557
					c-0.91-2.118-1.898-3.959-2.658-5.267c-0.759-1.309-1.266-2.101-1.201-2.147c0.052-0.038,0.667,0.681,1.514,1.953
					c0.848,1.27,1.902,3.11,2.824,5.256c0.918,2.147,1.523,4.179,1.858,5.669C317.133,128.449,317.23,129.39,317.167,129.402z"/>
			</g>
			<g>
				<path style="fill:#263238;" d="M321.544,116.634c0.143-0.015,0.504,2.259,0.806,5.079c0.302,2.821,0.431,5.12,0.288,5.135
					c-0.143,0.015-0.504-2.258-0.806-5.08C321.53,118.949,321.401,116.649,321.544,116.634z"/>
			</g>
			<g style="opacity:0.1;">
				<path d="M324.138,157.193c7.063-1.21,17.65-5.917,24.964-10.511c12.343-7.754,26.08-12.995,36.182-19.644
					C361.894,134.462,345.43,145.101,324.138,157.193z"/>
			</g>
			<g style="opacity:0.1;">
				<path d="M341.956,93.879c-7.438-4.119-16.057-5.74-24.558-5.875c-8.501-0.134-16.955,1.153-25.344,2.538
					c-6.203,1.025-13.125,2.289-18.017,6.238c0,0,33.172-6.065,43.129-6.031s12.886-0.155,16.641,0.756
					C337.563,92.415,341.956,93.879,341.956,93.879z"/>
			</g>
		</g>
	</g>
</g>
<g id="Leaves">
	<g>
		<path style="fill:#455A64;" d="M141.879,313.344c0.14,0.807,0.375,1.596,0.691,2.36c-1.143-0.968-2.403-1.723-3.843-2.213
			c-2.209-0.752-4.677-0.919-7.121-1.013c-0.073-0.003-0.146-0.005-0.22-0.008c1.199,2.792,2.804,5.215,4.945,6.791
			c0.446,0.329,0.919,0.618,1.41,0.876c-0.493,0.178-0.981,0.37-1.462,0.577c-3.244,1.392-7.65,4.892-9.813,6.562
			c4.338,1.083,8.702,1.226,12.913,0.415c0.26-0.05,0.519-0.106,0.778-0.165c-0.349,0.613-0.644,1.26-0.878,1.949
			c-0.752,2.209-0.921,4.676-1.015,7.12c-0.003,0.073-0.006,0.146-0.008,0.22c2.79-1.2,5.211-2.806,6.787-4.947
			c0.723-0.983,1.271-2.082,1.649-3.261c0.173,0.59,0.391,1.164,0.658,1.715c1.005,2.073,2.702,3.84,4.716,5.329
			c0.005-0.062,0.009-0.124,0.014-0.186c0.149-2.074,0.244-4.18-0.128-6.168c-0.369-1.971-1.239-3.697-2.456-5.332
			c-0.758-1.018-1.218-1.333-2.621-2.858c0,0,0,0,0,0c0,0,0-0.001,0-0.001c0,0,0,0,0.001,0c0.249-2.057,0.439-2.582,0.46-3.851
			c0.033-2.037-0.268-3.947-1.118-5.762c-0.859-1.832-2.165-3.487-3.497-5.083c-0.04-0.048-0.08-0.096-0.12-0.143
			C141.831,308.649,141.485,311.074,141.879,313.344z"/>
		<g>
			<path style="fill:#263238;" d="M154.272,317.993c0.045,0.115-4.076,1.824-9.202,3.816c-5.128,1.992-9.321,3.514-9.365,3.398
				c-0.045-0.115,4.075-1.823,9.203-3.816C150.034,319.399,154.227,317.878,154.272,317.993z"/>
		</g>
		<g>
			<path style="fill:#263238;" d="M144.454,321.838c0.118,0.039-0.083,0.959-0.449,2.055c-0.365,1.096-0.756,1.953-0.874,1.914
				c-0.118-0.039,0.083-0.959,0.449-2.056C143.946,322.656,144.337,321.799,144.454,321.838z"/>
		</g>
		<g>
			<path style="fill:#263238;" d="M142.544,322.774c-0.086,0.094-0.653-0.294-1.36-0.737c-0.705-0.447-1.299-0.793-1.251-0.91
				c0.043-0.113,0.746,0.06,1.491,0.531C142.168,322.126,142.626,322.687,142.544,322.774z"/>
		</g>
	</g>
	<g>
		<path style="fill:#455A64;" d="M359.225,388.863c-0.22,0.565-0.373,1.156-0.465,1.762c-0.355-1.052-0.865-2.013-1.591-2.876
			c-1.114-1.322-2.615-2.374-4.13-3.369c-0.045-0.03-0.091-0.06-0.136-0.089c-0.308,2.23-0.218,4.382,0.537,6.201
			c0.157,0.379,0.347,0.744,0.559,1.095c-0.381-0.076-0.764-0.141-1.149-0.194c-2.591-0.359-6.726,0.174-8.738,0.406
			c2.338,2.348,5.051,4.11,8.034,5.207c0.184,0.068,0.37,0.131,0.557,0.193c-0.456,0.255-0.891,0.553-1.303,0.9
			c-1.323,1.113-2.374,2.614-3.37,4.128c-0.03,0.045-0.06,0.091-0.089,0.136c2.229,0.306,4.38,0.215,6.2-0.54
			c0.835-0.347,1.604-0.834,2.295-1.438c-0.116,0.441-0.198,0.888-0.239,1.34c-0.156,1.7,0.244,3.471,0.951,5.186
			c0.027-0.038,0.053-0.075,0.08-0.113c0.889-1.259,1.755-2.559,2.28-3.962c0.52-1.392,0.629-2.82,0.483-4.323
			c-0.091-0.936-0.263-1.312-0.569-2.817c0,0,0,0,0,0c0,0,0,0,0-0.001c0,0,0,0,0,0c0.946-1.21,1.267-1.47,1.766-2.267
			c0.801-1.28,1.341-2.607,1.497-4.084c0.157-1.491-0.039-3.041-0.272-4.564c-0.007-0.046-0.014-0.091-0.021-0.137
			C360.993,385.866,359.844,387.272,359.225,388.863z"/>
		<g>
			<path style="fill:#263238;" d="M365.308,396.557c-0.016,0.09-3.284-0.403-7.299-1.103c-4.016-0.699-7.259-1.339-7.243-1.43
				c0.016-0.09,3.283,0.403,7.3,1.103C362.081,395.827,365.324,396.467,365.308,396.557z"/>
		</g>
		<g>
			<path style="fill:#263238;" d="M357.607,395.238c0.06,0.07-0.42,0.577-1.072,1.132c-0.651,0.556-1.228,0.949-1.287,0.88
				c-0.059-0.07,0.42-0.577,1.072-1.132C356.972,395.562,357.548,395.168,357.607,395.238z"/>
		</g>
		<g>
			<path style="fill:#263238;" d="M356.037,395.1c-0.09,0.026-0.302-0.437-0.581-0.989c-0.276-0.554-0.521-1-0.446-1.057
				c0.071-0.055,0.451,0.324,0.742,0.908C356.046,394.546,356.123,395.077,356.037,395.1z"/>
		</g>
	</g>
	<g>
		<path style="fill:#455A64;" d="M327.162,344.954c0,0,6.231,11.132,17.736,3.953C344.897,348.908,337.26,337.976,327.162,344.954z"
			/>
		<g>
			<path style="fill:#263238;" d="M348.859,349.582c-0.026,0.121-3.627-0.559-8.042-1.519c-4.416-0.96-7.974-1.836-7.947-1.957
				c0.026-0.121,3.627,0.559,8.042,1.519C345.327,348.585,348.885,349.461,348.859,349.582z"/>
		</g>
		<g>
			<path style="fill:#263238;" d="M335.271,344.511c0.095-0.079,0.641,0.419,1.219,1.112c0.578,0.693,0.97,1.32,0.874,1.399
				c-0.095,0.079-0.641-0.419-1.219-1.112C335.568,345.216,335.176,344.59,335.271,344.511z"/>
		</g>
		<g>
			<path style="fill:#263238;" d="M341.572,347.932c0.054,0.111-0.611,0.544-1.485,0.966c-0.874,0.422-1.626,0.674-1.68,0.563
				c-0.054-0.111,0.611-0.544,1.485-0.966C340.766,348.073,341.518,347.821,341.572,347.932z"/>
		</g>
	</g>
	<g>
		<path style="fill:#455A64;" d="M451.057,323.017c0,0,12.168-3.83,7.487-16.557C458.543,306.461,446.284,311.708,451.057,323.017z"
			/>
		<g>
			<path style="fill:#263238;" d="M460.011,302.72c0.113,0.05-1.287,3.437-3.126,7.563c-1.84,4.128-3.423,7.432-3.536,7.381
				c-0.113-0.05,1.287-3.436,3.127-7.564C458.315,305.974,459.898,302.669,460.011,302.72z"/>
		</g>
		<g>
			<path style="fill:#263238;" d="M452.276,314.988c-0.058-0.109,0.54-0.542,1.337-0.966c0.797-0.425,1.49-0.68,1.548-0.571
				c0.058,0.109-0.54,0.542-1.337,0.966C453.028,314.842,452.335,315.097,452.276,314.988z"/>
		</g>
		<g>
			<path style="fill:#263238;" d="M456.911,309.518c0.12-0.03,0.408,0.709,0.643,1.651c0.235,0.942,0.328,1.729,0.208,1.759
				c-0.12,0.03-0.408-0.709-0.643-1.651C456.884,310.335,456.791,309.548,456.911,309.518z"/>
		</g>
	</g>
	<g>
		<path style="fill:#455A64;" d="M84.079,346.092c0,0,12.54-2.343,9.419-15.539C93.498,330.553,80.697,334.293,84.079,346.092z"/>
		<g>
			<path style="fill:#263238;" d="M95.404,327.015c0.106,0.064-1.69,3.258-4.011,7.133c-2.322,3.877-4.29,6.967-4.396,6.904
				c-0.106-0.064,1.69-3.257,4.012-7.134C93.329,330.043,95.297,326.952,95.404,327.015z"/>
		</g>
		<g>
			<path style="fill:#263238;" d="M86.253,338.267c-0.045-0.116,0.601-0.473,1.443-0.799c0.842-0.326,1.56-0.496,1.605-0.381
				c0.045,0.115-0.601,0.473-1.443,0.799C87.016,338.212,86.297,338.383,86.253,338.267z"/>
		</g>
		<g>
			<path style="fill:#263238;" d="M91.51,333.392c0.123-0.015,0.32,0.753,0.44,1.716c0.121,0.963,0.119,1.756-0.004,1.772
				c-0.123,0.015-0.32-0.753-0.44-1.716C91.385,334.201,91.387,333.408,91.51,333.392z"/>
		</g>
	</g>
	<g>
		<path style="fill:#455A64;" d="M39.949,305.425c0,0,11.648,5.203,16.584-7.426C56.533,297.999,43.877,293.796,39.949,305.425z"/>
		<g>
			<path style="fill:#263238;" d="M60.113,296.172c0.051,0.113-3.243,1.719-7.356,3.587c-4.115,1.869-7.491,3.292-7.542,3.179
				c-0.051-0.113,3.242-1.719,7.357-3.587C56.685,297.483,60.061,296.06,60.113,296.172z"/>
		</g>
		<g>
			<path style="fill:#263238;" d="M46.187,300.225c0.029-0.12,0.764-0.047,1.641,0.163c0.878,0.211,1.566,0.479,1.537,0.599
				c-0.029,0.12-0.764,0.047-1.641-0.163C46.846,300.613,46.158,300.345,46.187,300.225z"/>
		</g>
		<g>
			<path style="fill:#263238;" d="M53.283,299.204c0.11,0.057-0.165,0.801-0.613,1.662c-0.448,0.861-0.901,1.512-1.011,1.455
				c-0.11-0.057,0.165-0.801,0.614-1.662C52.721,299.798,53.174,299.147,53.283,299.204z"/>
		</g>
	</g>
	<g>
		<path style="fill:#455A64;" d="M116.692,266.586c0,0,2.88,12.428,15.93,8.743C132.622,275.329,128.336,262.701,116.692,266.586z"
			/>
		<g>
			<path style="fill:#263238;" d="M136.238,277.081c-0.059,0.109-3.327-1.548-7.299-3.701c-3.973-2.153-7.145-3.987-7.086-4.096
				c0.059-0.109,3.327,1.548,7.3,3.702C133.125,275.139,136.297,276.972,136.238,277.081z"/>
		</g>
		<g>
			<path style="fill:#263238;" d="M124.604,268.422c0.113-0.05,0.498,0.581,0.86,1.407c0.362,0.827,0.563,1.538,0.45,1.587
				c-0.113,0.049-0.498-0.581-0.86-1.408C124.692,269.182,124.49,268.471,124.604,268.422z"/>
		</g>
		<g>
			<path style="fill:#263238;" d="M129.7,273.465c0.021,0.122-0.738,0.352-1.695,0.514c-0.957,0.162-1.749,0.194-1.77,0.072
				c-0.021-0.122,0.738-0.352,1.696-0.514C128.887,273.375,129.679,273.343,129.7,273.465z"/>
		</g>
	</g>
	<g>
		<path style="fill:#455A64;" d="M274.804,375.54c0,0,9.855,8.101,17.958-2.772C292.762,372.767,281.67,365.365,274.804,375.54z"/>
		<g>
			<path style="fill:#263238;" d="M296.698,371.953c0.02,0.122-3.582,0.799-8.043,1.512c-4.462,0.713-8.095,1.192-8.114,1.07
				c-0.02-0.122,3.581-0.799,8.044-1.512C293.045,372.31,296.678,371.831,296.698,371.953z"/>
		</g>
		<g>
			<path style="fill:#263238;" d="M282.196,372.176c0.06-0.109,0.749,0.157,1.54,0.592c0.791,0.435,1.383,0.876,1.323,0.985
				c-0.06,0.108-0.749-0.157-1.54-0.592C282.729,372.725,282.136,372.284,282.196,372.176z"/>
		</g>
		<g>
			<path style="fill:#263238;" d="M289.309,373.069c0.091,0.084-0.371,0.729-1.031,1.44c-0.66,0.711-1.269,1.22-1.36,1.135
				c-0.091-0.084,0.371-0.729,1.031-1.44C288.61,373.494,289.219,372.985,289.309,373.069z"/>
		</g>
	</g>
	<g>
		<path style="fill:#455A64;" d="M403.063,377.599c0,0,21.025-4.172,15.532-26.285C418.596,351.315,397.16,357.838,403.063,377.599z
			"/>
		<g>
			<path style="fill:#263238;" d="M421.732,345.335c0.107,0.062-2.91,5.428-6.737,11.983c-3.828,6.557-7.018,11.821-7.125,11.759
				c-0.107-0.062,2.909-5.427,6.738-11.984C418.435,350.537,421.625,345.272,421.732,345.335z"/>
		</g>
		<g>
			<path style="fill:#263238;" d="M406.569,364.411c-0.046-0.115,1.058-0.665,2.466-1.228c1.408-0.563,2.587-0.927,2.633-0.812
				c0.046,0.115-1.058,0.665-2.466,1.228C407.794,364.163,406.615,364.526,406.569,364.411z"/>
		</g>
		<g>
			<path style="fill:#263238;" d="M415.31,356.122c0.123-0.017,0.401,1.28,0.621,2.895c0.221,1.616,0.3,2.939,0.177,2.956
				c-0.122,0.017-0.401-1.279-0.621-2.895C415.267,357.462,415.187,356.139,415.31,356.122z"/>
		</g>
	</g>
</g>
</svg>
