<svg width="80" height="154" viewBox="0 0 80 154" fill="none" xmlns="http://www.w3.org/2000/svg">
<path d="M26.709 106.253C28.155 102.009 25.888 97.397 21.644 95.951C17.401 94.505 12.788 96.772 11.342 101.016C10.737 102.792 10.789 104.631 11.358 106.277C9.59702 107.211 8.17003 108.785 7.47703 110.821C6.03103 115.064 8.29803 119.677 12.542 121.123C16.785 122.569 21.398 120.302 22.844 116.058C23.449 114.282 23.397 112.443 22.828 110.797C24.588 109.863 26.015 108.289 26.709 106.253Z" fill="#FDFEFF"/>
<path d="M48.0648 123.544C50.981 113.913 45.5376 103.741 35.9066 100.825C26.2757 97.9092 16.1043 103.353 13.1881 112.984C10.272 122.614 15.7154 132.786 25.3463 135.702C34.9773 138.618 45.1487 133.175 48.0648 123.544Z" fill="#CEE3E8"/>
<path d="M30.621 125.25C25.834 125.25 21.952 121.369 21.952 116.581V8.668C21.952 3.881 25.833 0 30.62 0C35.407 0 39.288 3.881 39.288 8.668V116.581C39.29 121.369 35.409 125.25 30.621 125.25Z" fill="#CEE3E8"/>
<path d="M42.541 118.264C42.541 124.844 37.211 130.184 30.621 130.184C24.041 130.184 18.701 124.844 18.701 118.264C18.701 113.334 21.691 109.104 25.951 107.284V8.66391C25.951 6.09391 28.051 4.00391 30.621 4.00391C33.201 4.00391 35.291 6.09391 35.291 8.66391V107.284C39.551 109.104 42.541 113.334 42.541 118.264Z" fill="#7ABDCC"/>
<path d="M42.541 118.264C42.541 124.844 37.211 130.184 30.621 130.184C24.041 130.184 18.701 124.844 18.701 118.264C18.701 113.334 21.691 109.104 25.951 107.284V95.4241H35.291V107.284C39.551 109.104 42.541 113.334 42.541 118.264Z" fill="#58AEE8"/>
<path d="M79.861 143.184C79.861 145.864 78.541 148.244 76.511 149.694C75.191 150.644 73.581 151.204 71.831 151.204C69.591 151.204 67.561 150.274 66.111 148.784C64.631 150.594 62.391 151.754 59.881 151.754C58.151 151.754 56.561 151.204 55.251 150.274C54.501 151.074 53.631 151.764 52.671 152.294C51.171 153.144 49.441 153.624 47.591 153.624C43.811 153.624 40.501 151.604 38.671 148.584C36.751 149.954 34.401 150.764 31.861 150.764C25.341 150.764 20.051 145.474 20.051 138.954C20.051 134.684 22.311 130.954 25.701 128.874C27.491 127.774 29.601 127.144 31.861 127.144C33.231 127.144 34.531 127.384 35.751 127.814C35.781 127.464 35.831 127.114 35.891 126.774C35.891 126.764 35.891 126.754 35.901 126.744C36.661 122.284 39.481 118.554 43.341 116.514C44.881 115.704 46.581 115.154 48.391 114.964H48.401C48.931 114.894 49.471 114.864 50.021 114.864C57.941 114.864 64.361 121.284 64.361 129.204C64.361 129.334 64.351 129.464 64.341 129.604C67.081 130.404 69.201 132.624 69.881 135.404C70.511 135.254 71.161 135.154 71.831 135.154C76.261 135.154 79.861 138.754 79.861 143.184Z" fill="#FDFEFF"/>
<path d="M76.511 149.694C75.191 150.644 73.581 151.204 71.831 151.204C69.591 151.204 67.561 150.274 66.111 148.784C64.631 150.594 62.391 151.754 59.881 151.754C58.151 151.754 56.561 151.204 55.251 150.274C54.501 151.074 53.631 151.764 52.671 152.294C51.171 153.144 49.441 153.624 47.591 153.624C43.811 153.624 40.501 151.604 38.671 148.584C36.751 149.954 34.401 150.764 31.861 150.764C25.341 150.764 20.051 145.474 20.051 138.954C20.051 134.684 22.311 130.954 25.701 128.874C24.021 131.204 23.411 134.314 24.181 137.094C25.121 140.464 28.071 143.204 31.511 143.884C34.951 144.564 38.721 143.174 40.881 140.414C40.891 144.094 43.331 147.654 46.751 148.984C50.181 150.324 54.381 149.354 56.881 146.654C57.231 148.724 59.711 149.864 61.791 149.524C63.861 149.184 65.601 147.804 67.231 146.474C69.501 149.044 73.141 150.174 76.511 149.694Z" fill="#E5F0F9"/>
<path d="M48.391 114.964C48.151 115.104 47.911 115.264 47.671 115.424C44.341 117.664 41.441 120.664 39.731 124.304C38.011 127.944 37.551 132.234 38.881 136.034C36.841 133.424 35.781 130.084 35.891 126.774C35.891 126.764 35.891 126.754 35.901 126.744C36.661 122.284 39.481 118.554 43.341 116.514C44.881 115.704 46.581 115.154 48.391 114.964Z" fill="#E5F0F9"/>
<path d="M13.281 91.364C13.281 92.184 13.121 92.964 12.811 93.674C11.911 95.874 9.75102 97.4139 7.23102 97.4139C3.89102 97.4139 1.18103 94.704 1.18103 91.364C1.18103 89.284 2.23102 87.454 3.83102 86.364C4.80102 85.704 5.97102 85.314 7.23102 85.314C10.571 85.314 13.281 88.024 13.281 91.364Z" fill="#E5F0F9"/>
<path d="M13.281 91.364C13.281 92.184 13.121 92.964 12.811 93.674C11.841 94.334 10.671 94.7239 9.41103 94.7239C6.07103 94.7239 3.36102 92.014 3.36102 88.674C3.36102 87.854 3.52102 87.074 3.83102 86.364C4.80102 85.704 5.97102 85.314 7.23102 85.314C10.571 85.314 13.281 88.024 13.281 91.364Z" fill="#FDFEFF"/>
<path d="M16.135 74.0589C16.135 75.6369 14.856 76.9149 13.279 76.9149C11.701 76.9149 10.422 75.6359 10.422 74.0589C10.422 72.4809 11.701 71.2019 13.279 71.2019C14.856 71.2029 16.135 72.4809 16.135 74.0589Z" fill="#E5F0F9"/>
<path d="M15.8 138.75C15.8 140.37 15.31 141.88 14.47 143.14C13.05 145.25 10.64 146.65 7.90001 146.65C3.54001 146.65 0 143.11 0 138.75C0 135.33 2.17001 132.42 5.21001 131.32C5.21001 131.32 5.21 131.31 5.22 131.31C6.06 131.01 6.96001 130.85 7.90001 130.85C12.26 130.85 15.8 134.39 15.8 138.75Z" fill="#E5F0F9"/>
<path d="M15.8 138.75C15.8 140.37 15.31 141.88 14.47 143.14C13.63 143.45 12.72 143.62 11.77 143.62C7.39999 143.62 3.87 140.09 3.87 135.73C3.87 134.1 4.35999 132.58 5.20999 131.32C5.20999 131.32 5.20999 131.31 5.21999 131.31C6.05999 131.01 6.95999 130.85 7.89999 130.85C12.26 130.85 15.8 134.39 15.8 138.75Z" fill="#FDFEFF"/>
</svg>
