<svg width="102" height="104" viewBox="0 0 102 104" fill="none" xmlns="http://www.w3.org/2000/svg">
<path d="M50.249 36.6147C50.249 36.6147 52.221 27.6867 57.762 22.4007C66.595 13.9737 76.749 15.6997 76.749 15.6997C76.749 15.6997 82.435 41.0817 50.249 36.6147Z" fill="#FFB800"/>
<g opacity="0.4">
<path d="M50.249 36.7727C50.249 36.7727 51.688 30.5797 55.511 26.8167C64.857 17.6167 73.337 19.1677 73.337 19.1677C73.337 19.1677 72.792 39.9017 50.249 36.7727Z" fill="#FFB800"/>
</g>
<path d="M42.533 37.9718C42.533 37.9718 58.169 37.0208 70.658 21.3848" stroke="#7F5029" stroke-width="2" stroke-miterlimit="10" stroke-linecap="round" stroke-linejoin="round"/>
<path d="M40.452 67.4388C40.452 67.4388 41.618 85.3498 57.051 84.3348C57.051 84.3348 59.593 63.2338 40.452 67.4388Z" fill="#7DA631"/>
<g opacity="0.4">
<path d="M40.452 67.3257C40.452 67.3257 42.49 82.2777 54.789 81.4677C54.789 81.4677 56.013 66.3177 40.452 67.3257Z" fill="#7DA631"/>
</g>
<path d="M1 31.2528C9.958 40.2108 24.483 40.2108 33.442 31.2528C40.609 24.0858 40.609 12.4667 33.442 5.29975C27.709 -0.43325 18.413 -0.43325 12.679 5.29975C8.092 9.88675 8.092 17.3228 12.679 21.9097C16.348 25.5787 22.298 25.5787 25.967 21.9097C28.903 18.9737 28.903 14.2148 25.967 11.2788C23.619 8.93075 19.811 8.93075 17.463 11.2788" stroke="#AEC9CC" stroke-width="1.5" stroke-miterlimit="10" stroke-linecap="round" stroke-linejoin="round"/>
<path d="M59.545 70.7798C72.506 74.5508 81.927 87.3098 76.277 97.1708C73.473 102.065 67.357 103.926 62.412 101.214C58.456 99.0438 57.008 94.0778 59.177 90.1218C60.913 86.9568 64.886 85.7988 68.051 87.5338C70.583 88.9228 71.51 92.1008 70.121 94.6328C69.01 96.6588 66.467 97.3998 64.442 96.2888" stroke="white" stroke-width="1.5" stroke-miterlimit="10" stroke-linecap="round" stroke-linejoin="round"/>
<path d="M85.841 49.4657C87.437 47.8697 90.024 47.8697 91.62 49.4657C93.615 51.4607 93.615 54.6947 91.62 56.6897C89.126 59.1837 85.084 59.1837 82.59 56.6897C79.473 53.5727 79.473 48.5187 82.59 45.4027C86.486 41.5067 92.803 41.5067 96.699 45.4027C101.569 50.2727 101.569 58.1687 96.699 63.0397C90.611 69.1277 81.927 70.7807 71.571 64.1307C52.601 51.9497 31.466 35.3967 8.21503 57.2267" stroke="white" stroke-width="1.5" stroke-miterlimit="10" stroke-linecap="round" stroke-linejoin="round"/>
<path d="M17.759 60.8807C17.759 60.8807 31.63 48.4937 48.808 62.2007" stroke="#AEC9CC" stroke-width="1.5" stroke-miterlimit="10" stroke-linecap="round" stroke-linejoin="round"/>
<path d="M70.04 45.5088C70.04 46.6018 69.154 47.4888 68.06 47.4888C66.967 47.4888 66.08 46.6028 66.08 45.5088C66.08 44.4158 66.966 43.5288 68.06 43.5288C69.154 43.5288 70.04 44.4148 70.04 45.5088Z" fill="#AEC9CC"/>
<path d="M81.927 75.6308C81.927 76.5838 81.154 77.3568 80.201 77.3568C79.248 77.3568 78.475 76.5838 78.475 75.6308C78.475 74.6778 79.248 73.9048 80.201 73.9048C81.154 73.9038 81.927 74.6768 81.927 75.6308Z" fill="#AEC9CC"/>
<path d="M29.698 72.6588C29.698 73.6958 28.857 74.5367 27.82 74.5367C26.783 74.5367 25.942 73.6958 25.942 72.6588C25.942 71.6218 26.783 70.7808 27.82 70.7808C28.857 70.7798 29.698 71.6208 29.698 72.6588Z" fill="#AEC9CC"/>
<path d="M46.289 28.1488C46.289 29.1858 45.448 30.0267 44.411 30.0267C43.374 30.0267 42.533 29.1858 42.533 28.1488C42.533 27.1118 43.374 26.2708 44.411 26.2708C45.448 26.2708 46.289 27.1118 46.289 28.1488Z" fill="#AEC9CC"/>
<path d="M28.826 66.0588C28.826 66.0588 42.33 63.1148 50.249 76.2118" stroke="#507315" stroke-width="2" stroke-miterlimit="10" stroke-linecap="round" stroke-linejoin="round"/>
</svg>
